#N canvas 9 51 1351 686 10;
#X obj 398 60 output~;
#X obj 58 62 tgl 15 0 empty empty empty 17 7 0 10 -262144 -1 -1 0 1
;
#X floatatom 192 8 5 0 0 0 - - -;
#X obj 192 31 expr 60000/$f1;
#X obj 77 130 tgl 15 0 empty empty empty 17 7 0 10 -262144 -1 -1 0
1;
#X obj 104 130 tgl 15 0 empty empty empty 17 7 0 10 -262144 -1 -1 0
1;
#X obj 131 130 tgl 15 0 empty empty empty 17 7 0 10 -262144 -1 -1 0
1;
#X obj 158 130 tgl 15 0 empty empty empty 17 7 0 10 -262144 -1 -1 0
1;
#X obj 186 130 tgl 15 0 empty empty empty 17 7 0 10 -262144 -1 -1 0
1;
#X obj 213 130 tgl 15 0 empty empty empty 17 7 0 10 -262144 -1 -1 0
1;
#X obj 240 130 tgl 15 0 empty empty empty 17 7 0 10 -262144 -1 -1 0
1;
#X obj 266 130 tgl 15 0 empty empty empty 17 7 0 10 -262144 -1 -1 0
1;
#X obj 293 130 tgl 15 0 empty empty empty 17 7 0 10 -262144 -1 -1 0
1;
#X obj 320 130 tgl 15 0 empty empty empty 17 7 0 10 -262144 -1 -1 0
1;
#X obj 347 130 tgl 15 0 empty empty empty 17 7 0 10 -262144 -1 -1 0
1;
#X obj 374 130 tgl 15 0 empty empty empty 17 7 0 10 -262144 -1 -1 0
1;
#X obj 402 130 tgl 15 0 empty empty empty 17 7 0 10 -262144 -1 -1 0
1;
#X obj 429 130 tgl 15 0 empty empty empty 17 7 0 10 -262144 -1 -1 0
1;
#X obj 456 130 tgl 15 0 empty empty empty 17 7 0 10 -262144 -1 -1 0
1;
#X obj 483 130 tgl 15 0 empty empty empty 17 7 0 10 -262144 -1 -1 0
1;
#X msg 288 32 1;
#X msg 318 32 2;
#X msg 347 32 4;
#X floatatom 23 162 5 0 0 0 - - -;
#X floatatom 509 129 5 0 32 0 - - -;
#X obj 415 167 s trig1;
#X obj 77 200 tgl 15 0 empty empty empty 17 7 0 10 -262144 -1 -1 0
1;
#X obj 104 200 tgl 15 0 empty empty empty 17 7 0 10 -262144 -1 -1 0
1;
#X obj 131 200 tgl 15 0 empty empty empty 17 7 0 10 -262144 -1 -1 0
1;
#X obj 158 200 tgl 15 0 empty empty empty 17 7 0 10 -262144 -1 -1 0
1;
#X obj 186 200 tgl 15 0 empty empty empty 17 7 0 10 -262144 -1 -1 0
1;
#X obj 213 200 tgl 15 0 empty empty empty 17 7 0 10 -262144 -1 -1 0
1;
#X obj 240 200 tgl 15 0 empty empty empty 17 7 0 10 -262144 -1 -1 0
1;
#X obj 266 200 tgl 15 0 empty empty empty 17 7 0 10 -262144 -1 -1 0
1;
#X obj 293 200 tgl 15 0 empty empty empty 17 7 0 10 -262144 -1 -1 0
1;
#X obj 320 200 tgl 15 0 empty empty empty 17 7 0 10 -262144 -1 -1 0
1;
#X obj 347 200 tgl 15 0 empty empty empty 17 7 0 10 -262144 -1 -1 0
1;
#X obj 374 200 tgl 15 0 empty empty empty 17 7 0 10 -262144 -1 -1 0
1;
#X obj 402 200 tgl 15 0 empty empty empty 17 7 0 10 -262144 -1 -1 0
1;
#X obj 429 200 tgl 15 0 empty empty empty 17 7 0 10 -262144 -1 -1 0
1;
#X obj 456 200 tgl 15 0 empty empty empty 17 7 0 10 -262144 -1 -1 0
1;
#X obj 483 200 tgl 15 0 empty empty empty 17 7 0 10 -262144 -1 -1 0
1;
#X floatatom 24 232 5 0 0 0 - - -;
#N canvas 4 51 1351 686 stepsequencer..in.metro>toggles>stepnb..out.stepnb>bngout
0;
#X obj 101 242 inlet;
#X obj 1054 355 outlet;
#X obj 68 264 bang;
#X obj 68 288 spigot;
#X obj 170 245 inlet;
#X obj 137 265 bang;
#X obj 137 289 spigot;
#X obj 241 244 inlet;
#X obj 208 266 bang;
#X obj 208 290 spigot;
#X obj 300 246 inlet;
#X obj 269 268 bang;
#X obj 271 291 spigot;
#X obj 358 245 inlet;
#X obj 329 267 bang;
#X obj 330 291 spigot;
#X obj 416 248 inlet;
#X obj 384 270 bang;
#X obj 384 291 spigot;
#X obj 476 250 inlet;
#X obj 444 272 bang;
#X obj 444 296 spigot;
#X obj 523 254 inlet;
#X obj 498 276 bang;
#X obj 500 299 spigot;
#X obj 601 252 inlet;
#X obj 570 274 bang;
#X obj 570 298 spigot;
#X obj 661 256 inlet;
#X obj 630 278 bang;
#X obj 630 302 spigot;
#X obj 726 258 inlet;
#X obj 695 280 bang;
#X obj 695 304 spigot;
#X obj 793 262 inlet;
#X obj 762 284 bang;
#X obj 764 307 spigot;
#X obj 859 264 inlet;
#X obj 830 286 bang;
#X obj 828 310 spigot;
#X obj 942 268 inlet;
#X obj 911 290 bang;
#X obj 911 311 spigot;
#X obj 1001 270 inlet;
#X obj 970 292 bang;
#X obj 970 316 spigot;
#X obj 1083 274 inlet;
#X obj 1033 296 bang;
#X obj 1035 319 spigot;
#X obj 68 68 f;
#X obj 95 68 + 1;
#X obj 68 93 % 16;
#X obj 68 121 sel 0 1 2 3 4 5 6 7 8 9 10 11 12 13 14;
#X obj 68 36 inlet;
#X obj 1203 39 inlet;
#X obj 12 162 outlet;
#X connect 0 0 3 1;
#X connect 2 0 3 0;
#X connect 3 0 1 0;
#X connect 4 0 6 1;
#X connect 5 0 6 0;
#X connect 6 0 1 0;
#X connect 7 0 9 1;
#X connect 8 0 9 0;
#X connect 9 0 1 0;
#X connect 10 0 12 1;
#X connect 11 0 12 0;
#X connect 12 0 1 0;
#X connect 13 0 15 1;
#X connect 14 0 15 0;
#X connect 15 0 1 0;
#X connect 16 0 18 1;
#X connect 17 0 18 0;
#X connect 18 0 1 0;
#X connect 19 0 21 1;
#X connect 20 0 21 0;
#X connect 21 0 1 0;
#X connect 22 0 24 1;
#X connect 23 0 24 0;
#X connect 24 0 1 0;
#X connect 25 0 27 1;
#X connect 26 0 27 0;
#X connect 27 0 1 0;
#X connect 28 0 30 1;
#X connect 29 0 30 0;
#X connect 30 0 1 0;
#X connect 31 0 33 1;
#X connect 32 0 33 0;
#X connect 33 0 1 0;
#X connect 34 0 36 1;
#X connect 35 0 36 0;
#X connect 36 0 1 0;
#X connect 37 0 39 1;
#X connect 38 0 39 0;
#X connect 39 0 1 0;
#X connect 40 0 42 1;
#X connect 41 0 42 0;
#X connect 42 0 1 0;
#X connect 43 0 45 1;
#X connect 44 0 45 0;
#X connect 45 0 1 0;
#X connect 46 0 48 1;
#X connect 47 0 48 0;
#X connect 48 0 1 0;
#X connect 49 0 50 0;
#X connect 49 0 51 0;
#X connect 50 0 49 1;
#X connect 51 0 52 0;
#X connect 51 0 55 0;
#X connect 52 0 2 0;
#X connect 52 1 5 0;
#X connect 52 2 8 0;
#X connect 52 3 11 0;
#X connect 52 4 14 0;
#X connect 52 5 17 0;
#X connect 52 6 20 0;
#X connect 52 7 23 0;
#X connect 52 8 26 0;
#X connect 52 9 29 0;
#X connect 52 10 32 0;
#X connect 52 11 35 0;
#X connect 52 12 38 0;
#X connect 52 13 41 0;
#X connect 52 14 44 0;
#X connect 52 15 47 0;
#X connect 53 0 49 0;
#X connect 54 0 51 1;
#X restore 58 215 pd stepsequencer..in.metro>toggles>stepnb..out.stepnb>bngout
;
#X floatatom 509 199 5 0 32 0 - - -;
#X obj 77 271 tgl 15 0 empty empty empty 17 7 0 10 -262144 -1 -1 0
1;
#X obj 104 271 tgl 15 0 empty empty empty 17 7 0 10 -262144 -1 -1 0
1;
#X obj 131 271 tgl 15 0 empty empty empty 17 7 0 10 -262144 -1 -1 0
1;
#X obj 158 271 tgl 15 0 empty empty empty 17 7 0 10 -262144 -1 -1 0
1;
#X obj 186 271 tgl 15 0 empty empty empty 17 7 0 10 -262144 -1 -1 0
1;
#X obj 213 271 tgl 15 0 empty empty empty 17 7 0 10 -262144 -1 -1 0
1;
#X obj 240 271 tgl 15 0 empty empty empty 17 7 0 10 -262144 -1 -1 0
1;
#X obj 266 271 tgl 15 0 empty empty empty 17 7 0 10 -262144 -1 -1 0
1;
#X obj 293 271 tgl 15 0 empty empty empty 17 7 0 10 -262144 -1 -1 0
1;
#X obj 320 271 tgl 15 0 empty empty empty 17 7 0 10 -262144 -1 -1 0
1;
#X obj 347 271 tgl 15 0 empty empty empty 17 7 0 10 -262144 -1 -1 0
1;
#X obj 374 271 tgl 15 0 empty empty empty 17 7 0 10 -262144 -1 -1 0
1;
#X obj 402 271 tgl 15 0 empty empty empty 17 7 0 10 -262144 -1 -1 0
1;
#X obj 429 271 tgl 15 0 empty empty empty 17 7 0 10 -262144 -1 -1 0
1;
#X obj 456 271 tgl 15 0 empty empty empty 17 7 0 10 -262144 -1 -1 0
1;
#X obj 483 271 tgl 15 0 empty empty empty 17 7 0 10 -262144 -1 -1 0
1;
#X floatatom 23 303 5 0 0 0 - - -;
#N canvas 3 53 1351 686 stepsequencer..in.metro>toggles>stepnb..out.stepnb>bngout
0;
#X obj 101 242 inlet;
#X obj 1054 355 outlet;
#X obj 68 264 bang;
#X obj 68 288 spigot;
#X obj 170 245 inlet;
#X obj 137 265 bang;
#X obj 137 289 spigot;
#X obj 241 244 inlet;
#X obj 208 266 bang;
#X obj 208 290 spigot;
#X obj 300 246 inlet;
#X obj 269 268 bang;
#X obj 271 291 spigot;
#X obj 358 245 inlet;
#X obj 329 267 bang;
#X obj 330 291 spigot;
#X obj 416 248 inlet;
#X obj 384 270 bang;
#X obj 384 291 spigot;
#X obj 476 250 inlet;
#X obj 444 272 bang;
#X obj 444 296 spigot;
#X obj 523 254 inlet;
#X obj 498 276 bang;
#X obj 500 299 spigot;
#X obj 601 252 inlet;
#X obj 570 274 bang;
#X obj 570 298 spigot;
#X obj 661 256 inlet;
#X obj 630 278 bang;
#X obj 630 302 spigot;
#X obj 726 258 inlet;
#X obj 695 280 bang;
#X obj 695 304 spigot;
#X obj 793 262 inlet;
#X obj 762 284 bang;
#X obj 764 307 spigot;
#X obj 859 264 inlet;
#X obj 830 286 bang;
#X obj 828 310 spigot;
#X obj 942 268 inlet;
#X obj 911 290 bang;
#X obj 911 311 spigot;
#X obj 1001 270 inlet;
#X obj 970 292 bang;
#X obj 970 316 spigot;
#X obj 1083 274 inlet;
#X obj 1033 296 bang;
#X obj 1035 319 spigot;
#X obj 68 68 f;
#X obj 95 68 + 1;
#X obj 68 93 % 16;
#X obj 68 121 sel 0 1 2 3 4 5 6 7 8 9 10 11 12 13 14;
#X obj 68 36 inlet;
#X obj 1203 39 inlet;
#X obj 12 162 outlet;
#X connect 0 0 3 1;
#X connect 2 0 3 0;
#X connect 3 0 1 0;
#X connect 4 0 6 1;
#X connect 5 0 6 0;
#X connect 6 0 1 0;
#X connect 7 0 9 1;
#X connect 8 0 9 0;
#X connect 9 0 1 0;
#X connect 10 0 12 1;
#X connect 11 0 12 0;
#X connect 12 0 1 0;
#X connect 13 0 15 1;
#X connect 14 0 15 0;
#X connect 15 0 1 0;
#X connect 16 0 18 1;
#X connect 17 0 18 0;
#X connect 18 0 1 0;
#X connect 19 0 21 1;
#X connect 20 0 21 0;
#X connect 21 0 1 0;
#X connect 22 0 24 1;
#X connect 23 0 24 0;
#X connect 24 0 1 0;
#X connect 25 0 27 1;
#X connect 26 0 27 0;
#X connect 27 0 1 0;
#X connect 28 0 30 1;
#X connect 29 0 30 0;
#X connect 30 0 1 0;
#X connect 31 0 33 1;
#X connect 32 0 33 0;
#X connect 33 0 1 0;
#X connect 34 0 36 1;
#X connect 35 0 36 0;
#X connect 36 0 1 0;
#X connect 37 0 39 1;
#X connect 38 0 39 0;
#X connect 39 0 1 0;
#X connect 40 0 42 1;
#X connect 41 0 42 0;
#X connect 42 0 1 0;
#X connect 43 0 45 1;
#X connect 44 0 45 0;
#X connect 45 0 1 0;
#X connect 46 0 48 1;
#X connect 47 0 48 0;
#X connect 48 0 1 0;
#X connect 49 0 50 0;
#X connect 49 0 51 0;
#X connect 50 0 49 1;
#X connect 51 0 52 0;
#X connect 51 0 55 0;
#X connect 52 0 2 0;
#X connect 52 1 5 0;
#X connect 52 2 8 0;
#X connect 52 3 11 0;
#X connect 52 4 14 0;
#X connect 52 5 17 0;
#X connect 52 6 20 0;
#X connect 52 7 23 0;
#X connect 52 8 26 0;
#X connect 52 9 29 0;
#X connect 52 10 32 0;
#X connect 52 11 35 0;
#X connect 52 12 38 0;
#X connect 52 13 41 0;
#X connect 52 14 44 0;
#X connect 52 15 47 0;
#X connect 53 0 49 0;
#X connect 54 0 51 1;
#X restore 58 286 pd stepsequencer..in.metro>toggles>stepnb..out.stepnb>bngout
;
#X floatatom 509 270 5 0 32 0 - - -;
#X obj 76 343 tgl 15 0 empty empty empty 17 7 0 10 -262144 -1 -1 0
1;
#X obj 103 343 tgl 15 0 empty empty empty 17 7 0 10 -262144 -1 -1 0
1;
#X obj 130 343 tgl 15 0 empty empty empty 17 7 0 10 -262144 -1 -1 0
1;
#X obj 157 343 tgl 15 0 empty empty empty 17 7 0 10 -262144 -1 -1 0
1;
#X obj 185 343 tgl 15 0 empty empty empty 17 7 0 10 -262144 -1 -1 0
1;
#X obj 212 343 tgl 15 0 empty empty empty 17 7 0 10 -262144 -1 -1 0
1;
#X obj 239 343 tgl 15 0 empty empty empty 17 7 0 10 -262144 -1 -1 0
1;
#X obj 265 343 tgl 15 0 empty empty empty 17 7 0 10 -262144 -1 -1 0
1;
#X obj 292 343 tgl 15 0 empty empty empty 17 7 0 10 -262144 -1 -1 0
1;
#X obj 319 343 tgl 15 0 empty empty empty 17 7 0 10 -262144 -1 -1 0
1;
#X obj 346 343 tgl 15 0 empty empty empty 17 7 0 10 -262144 -1 -1 0
1;
#X obj 373 343 tgl 15 0 empty empty empty 17 7 0 10 -262144 -1 -1 0
1;
#X obj 401 343 tgl 15 0 empty empty empty 17 7 0 10 -262144 -1 -1 0
1;
#X obj 428 343 tgl 15 0 empty empty empty 17 7 0 10 -262144 -1 -1 0
1;
#X obj 455 343 tgl 15 0 empty empty empty 17 7 0 10 -262144 -1 -1 0
1;
#X obj 482 343 tgl 15 0 empty empty empty 17 7 0 10 -262144 -1 -1 0
1;
#X floatatom 24 375 5 0 0 0 - - -;
#N canvas 4 51 1351 686 stepsequencer..in.metro>toggles>stepnb..out.stepnb>bngout
0;
#X obj 101 242 inlet;
#X obj 1054 355 outlet;
#X obj 68 264 bang;
#X obj 68 288 spigot;
#X obj 170 245 inlet;
#X obj 137 265 bang;
#X obj 137 289 spigot;
#X obj 241 244 inlet;
#X obj 208 266 bang;
#X obj 208 290 spigot;
#X obj 300 246 inlet;
#X obj 269 268 bang;
#X obj 271 291 spigot;
#X obj 358 245 inlet;
#X obj 329 267 bang;
#X obj 330 291 spigot;
#X obj 416 248 inlet;
#X obj 384 270 bang;
#X obj 384 291 spigot;
#X obj 476 250 inlet;
#X obj 444 272 bang;
#X obj 444 296 spigot;
#X obj 523 254 inlet;
#X obj 498 276 bang;
#X obj 500 299 spigot;
#X obj 601 252 inlet;
#X obj 570 274 bang;
#X obj 570 298 spigot;
#X obj 661 256 inlet;
#X obj 630 278 bang;
#X obj 630 302 spigot;
#X obj 726 258 inlet;
#X obj 695 280 bang;
#X obj 695 304 spigot;
#X obj 793 262 inlet;
#X obj 762 284 bang;
#X obj 764 307 spigot;
#X obj 859 264 inlet;
#X obj 830 286 bang;
#X obj 828 310 spigot;
#X obj 942 268 inlet;
#X obj 911 290 bang;
#X obj 911 311 spigot;
#X obj 1001 270 inlet;
#X obj 970 292 bang;
#X obj 970 316 spigot;
#X obj 1083 274 inlet;
#X obj 1033 296 bang;
#X obj 1035 319 spigot;
#X obj 68 68 f;
#X obj 95 68 + 1;
#X obj 68 93 % 16;
#X obj 68 121 sel 0 1 2 3 4 5 6 7 8 9 10 11 12 13 14;
#X obj 68 36 inlet;
#X obj 1203 39 inlet;
#X obj 12 162 outlet;
#X connect 0 0 3 1;
#X connect 2 0 3 0;
#X connect 3 0 1 0;
#X connect 4 0 6 1;
#X connect 5 0 6 0;
#X connect 6 0 1 0;
#X connect 7 0 9 1;
#X connect 8 0 9 0;
#X connect 9 0 1 0;
#X connect 10 0 12 1;
#X connect 11 0 12 0;
#X connect 12 0 1 0;
#X connect 13 0 15 1;
#X connect 14 0 15 0;
#X connect 15 0 1 0;
#X connect 16 0 18 1;
#X connect 17 0 18 0;
#X connect 18 0 1 0;
#X connect 19 0 21 1;
#X connect 20 0 21 0;
#X connect 21 0 1 0;
#X connect 22 0 24 1;
#X connect 23 0 24 0;
#X connect 24 0 1 0;
#X connect 25 0 27 1;
#X connect 26 0 27 0;
#X connect 27 0 1 0;
#X connect 28 0 30 1;
#X connect 29 0 30 0;
#X connect 30 0 1 0;
#X connect 31 0 33 1;
#X connect 32 0 33 0;
#X connect 33 0 1 0;
#X connect 34 0 36 1;
#X connect 35 0 36 0;
#X connect 36 0 1 0;
#X connect 37 0 39 1;
#X connect 38 0 39 0;
#X connect 39 0 1 0;
#X connect 40 0 42 1;
#X connect 41 0 42 0;
#X connect 42 0 1 0;
#X connect 43 0 45 1;
#X connect 44 0 45 0;
#X connect 45 0 1 0;
#X connect 46 0 48 1;
#X connect 47 0 48 0;
#X connect 48 0 1 0;
#X connect 49 0 50 0;
#X connect 49 0 51 0;
#X connect 50 0 49 1;
#X connect 51 0 52 0;
#X connect 51 0 55 0;
#X connect 52 0 2 0;
#X connect 52 1 5 0;
#X connect 52 2 8 0;
#X connect 52 3 11 0;
#X connect 52 4 14 0;
#X connect 52 5 17 0;
#X connect 52 6 20 0;
#X connect 52 7 23 0;
#X connect 52 8 26 0;
#X connect 52 9 29 0;
#X connect 52 10 32 0;
#X connect 52 11 35 0;
#X connect 52 12 38 0;
#X connect 52 13 41 0;
#X connect 52 14 44 0;
#X connect 52 15 47 0;
#X connect 53 0 49 0;
#X connect 54 0 51 1;
#X restore 58 358 pd stepsequencer..in.metro>toggles>stepnb..out.stepnb>bngout
;
#X floatatom 508 342 5 0 32 0 - - -;
#X obj 414 232 s trig2;
#X obj 415 308 s trig3;
#X obj 415 380 s trig4;
#N canvas 0 0 450 300 (subpatch) 0;
#X array sample1 9024 float 2;
#X coords 0 1 9024 -1 100 70 1 0 0;
#X restore 891 23 graph;
#X obj 567 522 *~ 1;
#X floatatom 230 70 5 0 0 0 - - -;
#X obj 585 161 bng 15 250 50 0 empty empty empty 17 7 0 10 -262144
-1 -1;
#N canvas 0 0 450 300 (subpatch) 0;
#X array sample2 2686 float 2;
#X coords 0 1 2686 -1 100 70 1 0 0;
#X restore 1005 23 graph;
#X obj 761 524 *~ 1;
#X obj 784 464 vsl 20 50 0 2 0 0 empty empty empty 0 -9 0 10 -262144
-1 -1 0 1;
#N canvas 0 0 450 300 (subpatch) 0;
#X array sample3 17199 float 2;
#X coords 0 1 17199 -1 100 70 1 0 0;
#X restore 1119 23 graph;
#N canvas 0 0 450 300 (subpatch) 0;
#X array sample4 36273 float 2;
#X coords 0 1 36273 -1 100 70 1 0 0;
#X restore 1235 23 graph;
#X obj 607 161 bng 15 250 50 0 empty empty empty 17 7 0 10 -262144
-1 -1;
#X obj 629 161 bng 15 250 50 0 empty empty empty 17 7 0 10 -262144
-1 -1;
#X obj 651 161 bng 15 250 50 0 empty empty empty 17 7 0 10 -262144
-1 -1;
#X obj 674 161 tgl 15 0 empty empty empty 17 7 0 10 -262144 -1 -1 0
1;
#X obj 566 212 hip~;
#X obj 566 276 lop~;
#X obj 631 448 s~ resample1;
#X obj 566 428 clip~ -1 1;
#X obj 588 458 vsl 20 50 0 2 0 0 empty empty empty 0 -9 0 10 -262144
-1 -1 0 1;
#X obj 590 258 hsl 120 15 0 20000 0 0 empty empty empty -2 -8 0 10
-262144 -1 -1 11900 1;
#X obj 590 196 hsl 120 15 0 20000 0 0 empty empty empty -2 -8 0 10
-262144 -1 -1 0 1;
#X obj 760 429 clip~ -1 1;
#X obj 770 158 bng 15 250 50 0 empty empty empty 17 7 0 10 -262144
-1 -1;
#X obj 792 158 bng 15 250 50 0 empty empty empty 17 7 0 10 -262144
-1 -1;
#X obj 814 158 bng 15 250 50 0 empty empty empty 17 7 0 10 -262144
-1 -1;
#X obj 836 158 bng 15 250 50 0 empty empty empty 17 7 0 10 -262144
-1 -1;
#X obj 859 158 tgl 15 0 empty empty empty 17 7 0 10 -262144 -1 -1 0
1;
#X obj 950 523 *~ 1;
#X obj 1142 524 *~ 1;
#X obj 1165 464 vsl 20 50 0 2 0 0 empty empty empty 0 -9 0 10 -262144
-1 -1 0 1;
#X obj 949 426 clip~ -1 1;
#X obj 971 459 vsl 20 50 0 2 0 0 empty empty empty 0 -9 0 10 -262144
-1 -1 0 1;
#X obj 1141 428 clip~ -1 1;
#X obj 1028 455 s~ resample3;
#X obj 1197 460 s~ resample4;
#X obj 961 159 bng 15 250 50 0 empty empty empty 17 7 0 10 -262144
-1 -1;
#X obj 983 159 bng 15 250 50 0 empty empty empty 17 7 0 10 -262144
-1 -1;
#X obj 1005 159 bng 15 250 50 0 empty empty empty 17 7 0 10 -262144
-1 -1;
#X obj 1027 159 bng 15 250 50 0 empty empty empty 17 7 0 10 -262144
-1 -1;
#X obj 1050 159 tgl 15 0 empty empty empty 17 7 0 10 -262144 -1 -1
0 1;
#X obj 1154 159 bng 15 250 50 0 empty empty empty 17 7 0 10 -262144
-1 -1;
#X obj 1175 160 bng 15 250 50 0 empty empty empty 17 7 0 10 -262144
-1 -1;
#X obj 1197 160 bng 15 250 50 0 empty empty empty 17 7 0 10 -262144
-1 -1;
#X obj 1219 160 bng 15 250 50 0 empty empty empty 17 7 0 10 -262144
-1 -1;
#X obj 1242 160 tgl 15 0 empty empty empty 17 7 0 10 -262144 -1 -1
0 1;
#X obj 600 218 loadbang;
#X msg 600 238 20000;
#X obj 192 53 / 2;
#X floatatom 565 134 6 0 0 0 - pitch1 -;
#X floatatom 817 412 5 0.1 1 0 - - -;
#X obj 788 412 * -1;
#X msg 58 105 15;
#X floatatom 760 131 5 0 0 0 - pitch2 -;
#X floatatom 948 137 5 0 0 0 - pitch3 -;
#X floatatom 1140 137 5 0 0 0 - pitch4 -;
#X obj 567 541 clip~ -1 1;
#X floatatom 818 488 5 0 0 0 - - -;
#X floatatom 612 494 5 0 0 0 - - -;
#X floatatom 1003 494 5 0 0 0 - - -;
#X floatatom 1193 501 5 0 0 0 - - -;
#X obj 842 457 s~ resample2;
#X floatatom 623 411 5 0.1 1 0 - - -;
#X obj 594 411 * -1;
#X floatatom 1198 411 5 0.1 1 0 - - -;
#X obj 1169 411 * -1;
#X floatatom 1006 409 5 0.1 1 0 - - -;
#X obj 977 409 * -1;
#X obj 694 161 tgl 15 0 empty empty empty 17 7 0 10 -262144 -1 -1 0
1;
#X obj 879 158 tgl 15 0 empty empty empty 17 7 0 10 -262144 -1 -1 0
1;
#X obj 1072 159 tgl 15 0 empty empty empty 17 7 0 10 -262144 -1 -1
0 1;
#X obj 1262 160 tgl 15 0 empty empty empty 17 7 0 10 -262144 -1 -1
0 1;
#X obj 566 229 hip~;
#X obj 566 294 lop~;
#N canvas 3 145 1362 686 analogsequencer 0;
#X obj 88 88 f;
#X obj 115 88 + 1;
#X obj 88 56 inlet;
#X obj 1223 59 inlet;
#X obj 88 142 sel 0 1 2 3 4 5 6;
#X obj 96 190 f;
#X obj 124 190 f;
#X obj 152 190 f;
#X obj 180 190 f;
#X obj 207 190 f;
#X obj 235 190 f;
#X obj 263 190 f;
#X obj 344 221 f;
#X obj 389 50 inlet;
#X obj 23 154 outlet;
#X obj 88 113 % 8;
#X obj 432 50 inlet;
#X obj 475 50 inlet;
#X obj 519 50 inlet;
#X obj 559 50 inlet;
#X obj 599 50 inlet;
#X obj 639 50 inlet;
#X obj 680 50 inlet;
#X obj 199 263 outlet;
#X obj 336 194 bang;
#X connect 0 0 1 0;
#X connect 0 0 15 0;
#X connect 1 0 0 1;
#X connect 2 0 0 0;
#X connect 3 0 15 1;
#X connect 4 0 5 0;
#X connect 4 1 6 0;
#X connect 4 2 7 0;
#X connect 4 3 8 0;
#X connect 4 4 9 0;
#X connect 4 5 10 0;
#X connect 4 6 11 0;
#X connect 4 7 24 0;
#X connect 5 0 23 0;
#X connect 6 0 23 0;
#X connect 7 0 23 0;
#X connect 8 0 23 0;
#X connect 9 0 23 0;
#X connect 10 0 23 0;
#X connect 11 0 23 0;
#X connect 12 0 23 0;
#X connect 13 0 5 1;
#X connect 15 0 4 0;
#X connect 15 0 14 0;
#X connect 16 0 6 1;
#X connect 17 0 7 1;
#X connect 18 0 8 1;
#X connect 19 0 9 1;
#X connect 20 0 10 1;
#X connect 21 0 11 1;
#X connect 22 0 12 1;
#X connect 24 0 12 0;
#X restore 58 430 pd analogsequencer;
#X floatatom 24 447 5 0 0 0 - - -;
#X floatatom 69 414 5 0 0 0 - - -;
#X floatatom 103 414 5 0 0 0 - - -;
#X floatatom 138 414 5 0 0 0 - - -;
#X floatatom 172 414 5 0 0 0 - - -;
#X floatatom 207 414 5 0 0 0 - - -;
#X floatatom 241 414 5 0 0 0 - - -;
#X floatatom 276 414 5 0 0 0 - - -;
#X floatatom 310 414 5 0 0 0 - - -;
#X floatatom 355 414 3 0 8 0 - - -;
#N canvas 4 54 1351 685 analogsequencer 0;
#X obj 88 88 f;
#X obj 115 88 + 1;
#X obj 88 56 inlet;
#X obj 1053 66 inlet;
#X obj 96 190 f;
#X obj 124 190 f;
#X obj 152 190 f;
#X obj 180 190 f;
#X obj 207 190 f;
#X obj 235 190 f;
#X obj 281 198 f;
#X obj 409 198 f;
#X obj 566 28 inlet;
#X obj 23 154 outlet;
#X obj 609 28 inlet;
#X obj 652 28 inlet;
#X obj 696 28 inlet;
#X obj 736 28 inlet;
#X obj 776 28 inlet;
#X obj 816 28 inlet;
#X obj 867 27 inlet;
#X obj 296 293 outlet;
#X obj 88 142 sel 0 1 2 3 4 5 6 7;
#X obj 88 115 % 8;
#X obj 364 180 bang;
#X connect 0 0 1 0;
#X connect 0 0 23 0;
#X connect 1 0 0 1;
#X connect 2 0 0 0;
#X connect 3 0 23 1;
#X connect 4 0 21 0;
#X connect 5 0 21 0;
#X connect 6 0 21 0;
#X connect 7 0 21 0;
#X connect 8 0 21 0;
#X connect 9 0 21 0;
#X connect 10 0 21 0;
#X connect 11 0 21 0;
#X connect 12 0 4 1;
#X connect 14 0 5 1;
#X connect 15 0 6 1;
#X connect 16 0 7 1;
#X connect 17 0 8 1;
#X connect 18 0 9 1;
#X connect 19 0 10 1;
#X connect 20 0 11 1;
#X connect 22 0 4 0;
#X connect 22 1 5 0;
#X connect 22 2 6 0;
#X connect 22 3 7 0;
#X connect 22 4 8 0;
#X connect 22 5 9 0;
#X connect 22 6 10 0;
#X connect 22 7 24 0;
#X connect 23 0 13 0;
#X connect 23 0 22 0;
#X connect 24 0 11 0;
#X restore 58 496 pd analogsequencer;
#X floatatom 24 513 5 0 0 0 - - -;
#X floatatom 69 480 5 0 0 0 - - -;
#X floatatom 103 480 5 0 0 0 - - -;
#X floatatom 138 480 5 0 0 0 - - -;
#X floatatom 172 480 5 0 0 0 - - -;
#X floatatom 207 480 5 0 0 0 - - -;
#X floatatom 241 480 5 0 0 0 - - -;
#X floatatom 276 480 5 0 0 0 - - -;
#X floatatom 311 480 5 0 0 0 - - -;
#X floatatom 357 480 3 0 8 0 - - -;
#N canvas 4 51 1351 670 sampler1---- 0;
#X obj 486 70 openpanel;
#X obj 486 113 soundfiler;
#X msg 486 92 read -resize \$1 sample1;
#X obj 486 46 inlet;
#X obj 164 79 delay 5;
#X obj 72 474 hip~ 5;
#X obj 72 376 tabread4~ sample1;
#X obj 72 432 *~;
#X obj 112 432 vline~;
#X obj 71 347 vline~;
#X obj 72 582 outlet~;
#X msg 20 118 \; cutoffA 0 5;
#X obj 81 396 r cutoffA;
#X obj 686 111 adc~;
#X obj 728 111 inlet;
#X obj 802 112 inlet;
#X obj 1080 108 inlet;
#X obj 629 232 +~;
#X obj 686 166 tabwrite~ sample1;
#X obj 806 168 tabwrite~ sample1;
#X obj 956 148 tabwrite~ sample1;
#X obj 957 109 r~ resample1;
#X obj 1246 113 inlet;
#X obj 71 534 +~;
#X obj 627 262 *~ 0;
#X obj 71 14 r trig1;
#X obj 165 126 f;
#X obj 71 61 spigot 1;
#X obj 1321 20 inlet;
#X obj 149 35 == 0;
#X msg 163 184 \; cutoffA 1;
#X obj 165 154 pack 4.41e+08 1e+07;
#X obj 216 89 * 4.41e+08;
#N canvas 648 111 351 667 pitch 0;
#X obj 124 134 mtof;
#X floatatom 125 159 5 0 0 0 - - -;
#X floatatom 165 167 5 0 0 0 - - -;
#X obj 164 145 mtof;
#X obj 129 211 /;
#X floatatom 135 245 8 0 0 0 - - -;
#X obj 76 84 loadbang;
#X msg 102 104 0;
#X msg 75 127 60;
#X obj 166 120 + 60;
#X obj 165 53 inlet;
#X obj 85 259 outlet;
#X connect 0 0 1 0;
#X connect 1 0 4 1;
#X connect 2 0 4 0;
#X connect 3 0 2 0;
#X connect 4 0 5 0;
#X connect 4 0 11 0;
#X connect 6 0 8 0;
#X connect 6 0 7 0;
#X connect 7 0 9 0;
#X connect 8 0 0 0;
#X connect 9 0 3 0;
#X connect 10 0 9 0;
#X restore 216 65 pd pitch;
#X obj 216 112 +;
#X obj 126 155 f;
#X obj 486 155 arraysize sample1;
#X floatatom 486 177 10 0 0 0 - - -;
#X obj 486 134 bng 15 250 50 0 empty empty empty 17 7 0 10 -262144
-1 -1;
#X msg 618 327 \; slideStart1 range \$1 \$2;
#X msg 766 323 \; slideStart1 set 0;
#X obj 508 133 loadbang;
#X obj 551 176 s size1;
#X floatatom 294 229 8 0 0 0 - - -;
#X msg 616 362 \; slideEnd1 range \$1 \$2;
#X obj 290 248 delay;
#X obj 406 105 bang;
#X obj 294 208 / 44.1;
#X obj 396 164 -;
#X obj 381 198 -;
#X msg 267 281 0 10;
#X obj 216 43 inlet;
#X obj 277 115 r slideStart1_snd;
#X obj 368 58 r slideEnd1_snd;
#X obj 300 156 bang;
#X obj 300 186 -;
#X msg 443 197 bang;
#X obj 443 219 pack 0 0;
#X msg 796 391 \; slideEnd1 set \$2;
#X connect 0 0 2 0;
#X connect 1 0 38 0;
#X connect 2 0 1 0;
#X connect 3 0 0 0;
#X connect 4 0 26 0;
#X connect 4 0 30 0;
#X connect 4 0 45 0;
#X connect 5 0 23 0;
#X connect 6 0 7 0;
#X connect 7 0 5 0;
#X connect 8 0 7 1;
#X connect 9 0 6 0;
#X connect 12 0 8 0;
#X connect 13 0 17 0;
#X connect 13 0 18 0;
#X connect 13 1 17 1;
#X connect 13 1 19 0;
#X connect 14 0 18 0;
#X connect 15 0 19 0;
#X connect 16 0 20 0;
#X connect 17 0 24 0;
#X connect 21 0 20 0;
#X connect 22 0 24 1;
#X connect 23 0 10 0;
#X connect 24 0 23 1;
#X connect 25 0 27 0;
#X connect 26 0 31 0;
#X connect 27 0 11 0;
#X connect 27 0 4 0;
#X connect 27 0 35 0;
#X connect 28 0 29 0;
#X connect 29 0 27 1;
#X connect 31 0 9 0;
#X connect 32 0 34 0;
#X connect 33 0 32 0;
#X connect 34 0 26 0;
#X connect 35 0 9 0;
#X connect 36 0 37 0;
#X connect 36 0 42 0;
#X connect 36 0 48 0;
#X connect 36 0 49 0;
#X connect 37 0 57 1;
#X connect 37 0 56 0;
#X connect 38 0 36 0;
#X connect 41 0 36 0;
#X connect 43 0 45 1;
#X connect 45 0 50 0;
#X connect 46 0 48 0;
#X connect 46 0 49 0;
#X connect 47 0 43 0;
#X connect 48 0 49 1;
#X connect 49 0 55 0;
#X connect 50 0 8 0;
#X connect 51 0 33 0;
#X connect 52 0 34 1;
#X connect 52 0 35 1;
#X connect 52 0 54 0;
#X connect 52 0 55 1;
#X connect 53 0 46 0;
#X connect 53 0 48 1;
#X connect 54 0 55 0;
#X connect 55 0 47 0;
#X connect 56 0 57 0;
#X connect 56 0 40 0;
#X connect 57 0 39 0;
#X connect 57 0 44 0;
#X connect 57 0 58 0;
#X restore 565 176 pd sampler1----;
#X obj 567 564 s~ out;
#X obj 397 21 r~ out;
#X obj 892 100 hsl 100 10 0 9024 0 0 slideStart1_snd slideStart1 empty
-2 -8 0 10 -262144 -1 -1 0 1;
#X obj 892 116 hsl 100 10 0 9024 0 0 slideEnd1_snd slideEnd1 empty
-2 -8 0 10 -262144 -1 -1 9900 1;
#N canvas 3 145 1362 686 analogsequencer 0;
#X obj 88 88 f;
#X obj 115 88 + 1;
#X obj 88 56 inlet;
#X obj 1223 59 inlet;
#X obj 88 142 sel 0 1 2 3 4 5 6;
#X obj 96 190 f;
#X obj 124 190 f;
#X obj 152 190 f;
#X obj 180 190 f;
#X obj 207 190 f;
#X obj 235 190 f;
#X obj 263 190 f;
#X obj 291 190 f;
#X obj 389 50 inlet;
#X obj 23 154 outlet;
#X obj 88 113 % 8;
#X obj 432 50 inlet;
#X obj 475 50 inlet;
#X obj 519 50 inlet;
#X obj 559 50 inlet;
#X obj 599 50 inlet;
#X obj 639 50 inlet;
#X obj 680 50 inlet;
#X obj 199 263 outlet;
#X connect 0 0 1 0;
#X connect 0 0 15 0;
#X connect 1 0 0 1;
#X connect 2 0 0 0;
#X connect 3 0 15 1;
#X connect 4 0 5 0;
#X connect 4 1 6 0;
#X connect 4 2 7 0;
#X connect 4 3 8 0;
#X connect 4 4 9 0;
#X connect 4 5 10 0;
#X connect 4 6 11 0;
#X connect 4 7 12 0;
#X connect 5 0 23 0;
#X connect 6 0 23 0;
#X connect 7 0 23 0;
#X connect 8 0 23 0;
#X connect 9 0 23 0;
#X connect 10 0 23 0;
#X connect 11 0 23 0;
#X connect 12 0 23 0;
#X connect 13 0 5 1;
#X connect 15 0 4 0;
#X connect 15 0 14 0;
#X connect 16 0 6 1;
#X connect 17 0 7 1;
#X connect 18 0 8 1;
#X connect 19 0 9 1;
#X connect 20 0 10 1;
#X connect 21 0 11 1;
#X connect 22 0 12 1;
#X restore 58 563 pd analogsequencer;
#X floatatom 24 580 5 0 0 0 - - -;
#X floatatom 69 547 5 0 0 0 - - -;
#X floatatom 103 547 5 0 0 0 - - -;
#X floatatom 138 547 5 0 0 0 - - -;
#X floatatom 172 547 5 0 0 0 - - -;
#X floatatom 207 547 5 0 0 0 - - -;
#X floatatom 241 547 5 0 0 0 - - -;
#X floatatom 276 547 5 0 0 0 - - -;
#X floatatom 310 547 5 0 0 0 - - -;
#X floatatom 355 547 3 0 8 0 - - -;
#N canvas 0 334 1362 685 analogsequencer 0;
#X obj 88 88 f;
#X obj 115 88 + 1;
#X obj 88 56 inlet;
#X obj 1053 66 inlet;
#X obj 96 190 f;
#X obj 124 190 f;
#X obj 152 190 f;
#X obj 180 190 f;
#X obj 207 190 f;
#X obj 235 190 f;
#X obj 281 198 f;
#X obj 409 198 f;
#X obj 566 28 inlet;
#X obj 23 154 outlet;
#X obj 609 28 inlet;
#X obj 652 28 inlet;
#X obj 696 28 inlet;
#X obj 736 28 inlet;
#X obj 776 28 inlet;
#X obj 816 28 inlet;
#X obj 867 27 inlet;
#X obj 296 293 outlet;
#X obj 88 142 sel 0 1 2 3 4 5 6 7;
#X obj 88 115 % 8;
#X obj 364 180 bang;
#X connect 0 0 1 0;
#X connect 0 0 23 0;
#X connect 1 0 0 1;
#X connect 2 0 0 0;
#X connect 3 0 23 1;
#X connect 4 0 21 0;
#X connect 5 0 21 0;
#X connect 6 0 21 0;
#X connect 7 0 21 0;
#X connect 8 0 21 0;
#X connect 9 0 21 0;
#X connect 10 0 21 0;
#X connect 11 0 21 0;
#X connect 12 0 4 1;
#X connect 14 0 5 1;
#X connect 15 0 6 1;
#X connect 16 0 7 1;
#X connect 17 0 8 1;
#X connect 18 0 9 1;
#X connect 19 0 10 1;
#X connect 20 0 11 1;
#X connect 22 0 4 0;
#X connect 22 1 5 0;
#X connect 22 2 6 0;
#X connect 22 3 7 0;
#X connect 22 4 8 0;
#X connect 22 5 9 0;
#X connect 22 6 10 0;
#X connect 22 7 24 0;
#X connect 23 0 13 0;
#X connect 23 0 22 0;
#X connect 24 0 11 0;
#X restore 58 628 pd analogsequencer;
#X floatatom 24 645 5 0 0 0 - - -;
#X floatatom 69 612 5 0 0 0 - - -;
#X floatatom 103 612 5 0 0 0 - - -;
#X floatatom 138 612 5 0 0 0 - - -;
#X floatatom 172 612 5 0 0 0 - - -;
#X floatatom 207 612 5 0 0 0 - - -;
#X floatatom 241 612 5 0 0 0 - - -;
#X floatatom 276 612 5 0 0 0 - - -;
#X floatatom 311 612 5 0 0 0 - - -;
#X floatatom 357 612 3 0 8 0 - - -;
#N canvas 11 51 1351 686 selectsend 0;
#X obj -281 28 inlet;
#X obj -245 195 s pitch1;
#X obj -246 172 spigot;
#X obj -180 177 spigot;
#X obj -180 213 s slideStart1;
#X obj -180 195 maxlib/scale 0 100 0 0 0;
#X obj -68 172 r size1;
#X obj -13 169 spigot;
#X obj -13 187 maxlib/scale 0 100 0 0 0;
#X obj 99 166 r size1;
#X obj -13 205 s slideEnd1;
#X obj -394 18 sel 1 2 3 4;
#X obj -206 269 spigot;
#X obj -138 269 spigot;
#X obj -138 287 maxlib/scale 0 100 0 0 0;
#X obj -26 267 r size1;
#X obj 26 269 spigot;
#X obj 26 288 maxlib/scale 0 100 0 0 0;
#X obj 138 268 r size1;
#X obj -206 286 s pitch2;
#X obj -138 305 s slideStart2;
#X obj 26 306 s slideEnd2;
#X obj -171 411 spigot;
#X obj -103 411 spigot;
#X obj -103 429 maxlib/scale 0 100 0 0 0;
#X obj 9 409 r size1;
#X obj 61 411 spigot;
#X obj 61 430 maxlib/scale 0 100 0 0 0;
#X obj 173 410 r size1;
#X obj -171 428 s pitch3;
#X obj -103 447 s slideStart3;
#X obj 61 448 s slideEnd3;
#X obj -145 515 spigot;
#X obj -77 515 spigot;
#X obj -77 533 maxlib/scale 0 100 0 0 0;
#X obj 35 513 r size1;
#X obj 86 515 spigot;
#X obj 86 534 maxlib/scale 0 100 0 0 0;
#X obj 198 514 r size1;
#X obj -77 551 s slideStart4;
#X obj -145 532 s pitch4;
#X obj 86 552 s slideEnd4;
#X obj -234 44 inlet;
#X obj -21 56 inlet;
#X obj -111 54 inlet;
#X obj 351 48 inlet;
#X obj -230 237 spigot;
#X obj -281 141 spigot;
#X obj -197 478 spigot;
#X obj -216 374 spigot;
#X obj -259 116 tgl 15 0 empty empty empty 17 7 0 10 -262144 -1 -1
0 1;
#X obj -210 216 tgl 15 0 empty empty empty 17 7 0 10 -262144 -1 -1
0 1;
#X obj -187 349 tgl 15 0 empty empty empty 17 7 0 10 -262144 -1 -1
0 1;
#X obj -166 459 tgl 15 0 empty empty empty 17 7 0 10 -262144 -1 -1
0 1;
#X msg -342 406 0;
#X msg -280 553 0;
#X msg -384 283 0;
#X msg -415 189 0;
#X connect 0 0 47 0;
#X connect 0 0 46 0;
#X connect 0 0 49 0;
#X connect 0 0 48 0;
#X connect 2 0 1 0;
#X connect 3 0 5 0;
#X connect 5 0 4 0;
#X connect 6 0 5 4;
#X connect 7 0 8 0;
#X connect 8 0 10 0;
#X connect 9 0 8 4;
#X connect 11 0 50 0;
#X connect 11 0 57 0;
#X connect 11 1 51 0;
#X connect 11 1 56 0;
#X connect 11 2 52 0;
#X connect 11 2 54 0;
#X connect 11 3 53 0;
#X connect 11 3 55 0;
#X connect 11 4 50 0;
#X connect 11 4 57 0;
#X connect 12 0 19 0;
#X connect 13 0 14 0;
#X connect 14 0 20 0;
#X connect 15 0 14 4;
#X connect 16 0 17 0;
#X connect 17 0 21 0;
#X connect 18 0 17 4;
#X connect 22 0 29 0;
#X connect 23 0 24 0;
#X connect 24 0 30 0;
#X connect 25 0 24 4;
#X connect 26 0 27 0;
#X connect 27 0 31 0;
#X connect 28 0 27 4;
#X connect 32 0 40 0;
#X connect 33 0 34 0;
#X connect 34 0 39 0;
#X connect 35 0 34 4;
#X connect 36 0 37 0;
#X connect 37 0 41 0;
#X connect 38 0 37 4;
#X connect 42 0 2 1;
#X connect 42 0 12 1;
#X connect 42 0 22 1;
#X connect 42 0 32 1;
#X connect 43 0 7 1;
#X connect 43 0 16 1;
#X connect 43 0 26 1;
#X connect 43 0 36 1;
#X connect 44 0 3 1;
#X connect 44 0 13 1;
#X connect 44 0 23 1;
#X connect 44 0 33 1;
#X connect 45 0 11 0;
#X connect 46 0 12 0;
#X connect 46 0 13 0;
#X connect 46 0 16 0;
#X connect 47 0 2 0;
#X connect 47 0 3 0;
#X connect 47 0 7 0;
#X connect 48 0 32 0;
#X connect 48 0 33 0;
#X connect 48 0 36 0;
#X connect 49 0 22 0;
#X connect 49 0 23 0;
#X connect 49 0 26 0;
#X connect 50 0 47 1;
#X connect 51 0 46 1;
#X connect 52 0 49 1;
#X connect 53 0 48 1;
#X connect 54 0 51 0;
#X connect 54 0 50 0;
#X connect 54 0 53 0;
#X connect 55 0 51 0;
#X connect 55 0 50 0;
#X connect 55 0 52 0;
#X connect 56 0 50 0;
#X connect 56 0 52 0;
#X connect 56 0 53 0;
#X connect 57 0 51 0;
#X connect 57 0 52 0;
#X connect 57 0 53 0;
#X restore 181 452 pd selectsend;
#X floatatom 277 436 3 1 4 0 - - -;
#X obj 199 437 tgl 15 0 empty empty empty 17 7 0 10 -262144 -1 -1 0
1;
#X obj 225 437 tgl 15 0 empty empty empty 17 7 0 10 -262144 -1 -1 0
1;
#X obj 252 437 tgl 15 0 empty empty empty 17 7 0 10 -262144 -1 -1 0
1;
#N canvas 0 0 1362 686 sampler2---- 0;
#X obj 51 440 hip~ 5;
#X obj 51 398 *~;
#X obj 91 398 vline~;
#X obj 50 313 vline~;
#X obj 50 505 outlet~;
#X obj 51 342 tabread4~ sample2;
#X obj 91 371 r cutoffB;
#X obj 697 111 adc~;
#X obj 808 107 inlet;
#X obj 928 109 inlet;
#X obj 1154 111 inlet;
#X obj 640 232 +~;
#X obj 1241 145 inlet;
#X obj 638 262 *~ 0;
#X obj 51 471 +~;
#X obj 691 192 tabwrite~ sample2;
#X obj 826 195 tabwrite~ sample2;
#X obj 1012 207 tabwrite~ sample2;
#X obj 1019 125 r~ resample2;
#X obj 70 19 r trig2;
#X obj 1289 12 inlet;
#X obj 1289 37 == 0;
#X obj 496 80 openpanel;
#X obj 496 123 soundfiler;
#X obj 496 56 inlet;
#X obj 174 89 delay 5;
#X obj 157 131 f;
#X obj 81 71 spigot 1;
#X obj 175 164 pack 4.41e+08 1e+07;
#X obj 226 99 * 4.41e+08;
#N canvas 648 111 351 667 pitch 0;
#X obj 124 134 mtof;
#X floatatom 125 159 5 0 0 0 - - -;
#X floatatom 165 167 5 0 0 0 - - -;
#X obj 164 145 mtof;
#X obj 129 211 /;
#X floatatom 135 245 8 0 0 0 - - -;
#X obj 76 84 loadbang;
#X msg 102 104 0;
#X msg 75 127 60;
#X obj 166 120 + 60;
#X obj 165 53 inlet;
#X obj 85 259 outlet;
#X connect 0 0 1 0;
#X connect 1 0 4 1;
#X connect 2 0 4 0;
#X connect 3 0 2 0;
#X connect 4 0 5 0;
#X connect 4 0 11 0;
#X connect 6 0 8 0;
#X connect 6 0 7 0;
#X connect 7 0 9 0;
#X connect 8 0 0 0;
#X connect 9 0 3 0;
#X connect 10 0 9 0;
#X restore 226 75 pd pitch;
#X obj 226 122 +;
#X obj 136 165 f;
#X floatatom 496 187 10 0 0 0 - - -;
#X obj 496 144 bng 15 250 50 0 empty empty empty 17 7 0 10 -262144
-1 -1;
#X msg 451 216 bang;
#X obj 451 238 pack 0 0;
#X obj 518 143 loadbang;
#X floatatom 327 239 8 0 0 0 - - -;
#X obj 300 258 delay;
#X obj 416 115 bang;
#X obj 327 218 / 44.1;
#X obj 402 146 -;
#X obj 393 173 -;
#X msg 277 291 0 10;
#X obj 226 53 inlet;
#X msg 29 128 \; cutoffB 0 5;
#X msg 173 194 \; cutoffB 1;
#X msg 371 269 \; slideStart2 range \$1 \$2;
#X msg 369 304 \; slideEnd2 range \$1 \$2;
#X msg 521 244 \; slideEnd2 set \$1;
#X msg 512 214 \; slideStart2 set 0;
#X obj 496 165 arraysize sample2;
#X msg 496 102 read -resize \$1 sample2;
#X obj 561 186 s size2;
#X obj 287 125 r slideStart2_snd;
#X obj 378 68 r slideEnd2_snd;
#X obj 339 153 bang;
#X obj 337 189 -;
#X connect 0 0 14 0;
#X connect 1 0 0 0;
#X connect 2 0 1 1;
#X connect 3 0 5 0;
#X connect 5 0 1 0;
#X connect 6 0 2 0;
#X connect 7 0 11 0;
#X connect 7 0 15 0;
#X connect 7 1 11 1;
#X connect 7 1 16 0;
#X connect 8 0 15 0;
#X connect 9 0 16 0;
#X connect 10 0 17 0;
#X connect 11 0 13 0;
#X connect 12 0 13 1;
#X connect 13 0 14 1;
#X connect 14 0 4 0;
#X connect 18 0 17 0;
#X connect 19 0 27 0;
#X connect 20 0 21 0;
#X connect 21 0 27 1;
#X connect 22 0 53 0;
#X connect 23 0 34 0;
#X connect 24 0 22 0;
#X connect 25 0 26 0;
#X connect 25 0 47 0;
#X connect 25 0 39 0;
#X connect 26 0 28 0;
#X connect 27 0 46 0;
#X connect 27 0 25 0;
#X connect 27 0 32 0;
#X connect 28 0 3 0;
#X connect 29 0 31 0;
#X connect 30 0 29 0;
#X connect 31 0 26 0;
#X connect 32 0 3 0;
#X connect 33 0 36 1;
#X connect 33 0 35 0;
#X connect 33 0 51 0;
#X connect 33 0 50 0;
#X connect 34 0 52 0;
#X connect 35 0 36 0;
#X connect 36 0 48 0;
#X connect 36 0 49 0;
#X connect 37 0 52 0;
#X connect 38 0 39 1;
#X connect 39 0 44 0;
#X connect 40 0 42 0;
#X connect 40 0 43 0;
#X connect 41 0 38 0;
#X connect 42 0 43 1;
#X connect 43 0 58 0;
#X connect 44 0 2 0;
#X connect 45 0 30 0;
#X connect 52 0 33 0;
#X connect 52 0 42 0;
#X connect 52 0 43 0;
#X connect 52 0 54 0;
#X connect 53 0 23 0;
#X connect 55 0 31 1;
#X connect 55 0 32 1;
#X connect 55 0 57 0;
#X connect 55 0 58 1;
#X connect 56 0 40 0;
#X connect 56 0 42 1;
#X connect 57 0 58 0;
#X connect 58 0 41 0;
#X restore 760 173 pd sampler2----;
#N canvas 0 115 1362 686 sampler3---- 0;
#X obj 75 484 hip~ 5;
#X obj 75 442 *~;
#X obj 115 442 vline~;
#X obj 73 357 vline~;
#X obj 73 543 outlet~;
#X obj 115 415 r cutoffC;
#X obj 75 386 tabread4~ sample3;
#X obj 59 15 r trig3;
#X obj 697 111 adc~;
#X obj 808 107 inlet;
#X obj 928 109 inlet;
#X obj 1154 111 inlet;
#X obj 640 232 +~;
#X obj 1241 145 inlet;
#X obj 638 262 *~ 0;
#X obj 75 514 +~;
#X obj 691 192 tabwrite~ sample3;
#X obj 826 195 tabwrite~ sample3;
#X obj 1012 207 tabwrite~ sample3;
#X obj 1019 125 r~ resample3;
#X obj 1309 5 inlet;
#X obj 1309 30 == 0;
#X obj 481 63 openpanel;
#X obj 481 106 soundfiler;
#X obj 481 39 inlet;
#X obj 159 72 delay 5;
#X obj 160 119 f;
#X obj 66 54 spigot 1;
#X obj 160 147 pack 4.41e+08 1e+07;
#X obj 211 82 * 4.41e+08;
#N canvas 648 111 351 667 pitch 0;
#X obj 124 134 mtof;
#X floatatom 125 159 5 0 0 0 - - -;
#X floatatom 165 167 5 0 0 0 - - -;
#X obj 164 145 mtof;
#X obj 129 211 /;
#X floatatom 135 245 8 0 0 0 - - -;
#X obj 76 84 loadbang;
#X msg 102 104 0;
#X msg 75 127 60;
#X obj 166 120 + 60;
#X obj 165 53 inlet;
#X obj 85 259 outlet;
#X connect 0 0 1 0;
#X connect 1 0 4 1;
#X connect 2 0 4 0;
#X connect 3 0 2 0;
#X connect 4 0 5 0;
#X connect 4 0 11 0;
#X connect 6 0 8 0;
#X connect 6 0 7 0;
#X connect 7 0 9 0;
#X connect 8 0 0 0;
#X connect 9 0 3 0;
#X connect 10 0 9 0;
#X restore 211 58 pd pitch;
#X obj 211 105 +;
#X obj 121 148 f;
#X floatatom 481 170 10 0 0 0 - - -;
#X obj 481 127 bng 15 250 50 0 empty empty empty 17 7 0 10 -262144
-1 -1;
#X msg 436 199 bang;
#X obj 436 221 pack 0 0;
#X obj 503 126 loadbang;
#X floatatom 312 222 8 0 0 0 - - -;
#X obj 285 241 delay;
#X obj 401 98 bang;
#X obj 312 201 / 44.1;
#X obj 389 126 -;
#X obj 374 147 -;
#X msg 262 274 0 10;
#X obj 211 36 inlet;
#X msg 16 111 \; cutoffC 0 5;
#X msg 158 177 \; cutoffC 1;
#X msg 356 252 \; slideStart3 range \$1 \$2;
#X msg 354 287 \; slideEnd3 range \$1 \$2;
#X msg 501 231 \; slideEnd3 set \$1;
#X msg 492 201 \; slideStart3 set 0;
#X obj 546 169 s size3;
#X obj 481 148 arraysize sample3;
#X msg 481 85 read -resize \$1 sample3;
#X obj 363 51 r slideEnd3_snd;
#X obj 272 109 r slideStart3_snd;
#X obj 312 145 bang;
#X obj 312 175 -;
#X connect 0 0 15 0;
#X connect 1 0 0 0;
#X connect 2 0 1 1;
#X connect 3 0 6 0;
#X connect 5 0 2 0;
#X connect 6 0 1 0;
#X connect 7 0 27 0;
#X connect 8 0 12 0;
#X connect 8 0 16 0;
#X connect 8 1 12 1;
#X connect 8 1 17 0;
#X connect 9 0 16 0;
#X connect 10 0 17 0;
#X connect 11 0 18 0;
#X connect 12 0 14 0;
#X connect 13 0 14 1;
#X connect 14 0 15 1;
#X connect 15 0 4 0;
#X connect 19 0 18 0;
#X connect 20 0 21 0;
#X connect 21 0 27 1;
#X connect 22 0 54 0;
#X connect 23 0 34 0;
#X connect 24 0 22 0;
#X connect 25 0 26 0;
#X connect 25 0 47 0;
#X connect 25 0 39 0;
#X connect 26 0 28 0;
#X connect 27 0 46 0;
#X connect 27 0 25 0;
#X connect 27 0 32 0;
#X connect 28 0 3 0;
#X connect 29 0 31 0;
#X connect 30 0 29 0;
#X connect 31 0 26 0;
#X connect 32 0 3 0;
#X connect 33 0 36 1;
#X connect 33 0 35 0;
#X connect 33 0 50 0;
#X connect 33 0 51 0;
#X connect 34 0 53 0;
#X connect 35 0 36 0;
#X connect 36 0 48 0;
#X connect 36 0 49 0;
#X connect 37 0 53 0;
#X connect 38 0 39 1;
#X connect 39 0 44 0;
#X connect 40 0 42 0;
#X connect 40 0 43 0;
#X connect 41 0 38 0;
#X connect 42 0 43 1;
#X connect 43 0 58 0;
#X connect 44 0 2 0;
#X connect 45 0 30 0;
#X connect 53 0 33 0;
#X connect 53 0 42 0;
#X connect 53 0 43 0;
#X connect 53 0 52 0;
#X connect 54 0 23 0;
#X connect 55 0 40 0;
#X connect 55 0 42 1;
#X connect 56 0 31 1;
#X connect 56 0 32 1;
#X connect 56 0 58 1;
#X connect 56 0 57 0;
#X connect 57 0 58 0;
#X connect 58 0 41 0;
#X restore 948 175 pd sampler3----;
#N canvas 3 53 1351 686 sampler4---- 0;
#X obj 80 520 hip~ 5;
#X obj 80 478 *~;
#X obj 120 478 vline~;
#X obj 79 393 vline~;
#X obj 79 561 outlet~;
#X obj 80 422 tabread4~ sample4;
#X obj 120 451 r cutoffD;
#X obj 68 27 r trig4;
#X obj 711 123 adc~;
#X obj 822 119 inlet;
#X obj 942 121 inlet;
#X obj 1168 123 inlet;
#X obj 654 244 +~;
#X obj 1228 131 inlet;
#X obj 652 274 *~ 0;
#X obj 1033 137 r~ resample2;
#X obj 79 543 +~;
#X obj 705 204 tabwrite~ sample4;
#X obj 840 207 tabwrite~ sample4;
#X obj 1026 219 tabwrite~ sample4;
#X obj 1287 21 inlet;
#X obj 1287 46 == 0;
#X obj 483 86 openpanel;
#X obj 483 129 soundfiler;
#X obj 483 62 inlet;
#X obj 161 95 delay 5;
#X obj 162 142 f;
#X obj 68 77 spigot 1;
#X obj 162 170 pack 4.41e+08 1e+07;
#X obj 213 105 * 4.41e+08;
#N canvas 648 111 351 667 pitch 0;
#X obj 124 134 mtof;
#X floatatom 125 159 5 0 0 0 - - -;
#X floatatom 165 167 5 0 0 0 - - -;
#X obj 164 145 mtof;
#X obj 129 211 /;
#X floatatom 135 245 8 0 0 0 - - -;
#X obj 76 84 loadbang;
#X msg 102 104 0;
#X msg 75 127 60;
#X obj 166 120 + 60;
#X obj 165 53 inlet;
#X obj 85 259 outlet;
#X connect 0 0 1 0;
#X connect 1 0 4 1;
#X connect 2 0 4 0;
#X connect 3 0 2 0;
#X connect 4 0 5 0;
#X connect 4 0 11 0;
#X connect 6 0 8 0;
#X connect 6 0 7 0;
#X connect 7 0 9 0;
#X connect 8 0 0 0;
#X connect 9 0 3 0;
#X connect 10 0 9 0;
#X restore 213 81 pd pitch;
#X obj 213 128 +;
#X obj 123 171 f;
#X floatatom 483 193 10 0 0 0 - - -;
#X obj 483 150 bng 15 250 50 0 empty empty empty 17 7 0 10 -262144
-1 -1;
#X msg 438 222 bang;
#X obj 438 244 pack 0 0;
#X obj 505 149 loadbang;
#X floatatom 314 245 8 0 0 0 - - -;
#X obj 287 264 delay;
#X obj 403 121 bang;
#X obj 314 224 / 44.1;
#X obj 393 146 -;
#X obj 378 180 -;
#X msg 264 297 0 10;
#X obj 213 59 inlet;
#X msg 17 134 \; cutoffD 0 5;
#X msg 160 200 \; cutoffD 1;
#X msg 356 310 \; slideEnd4 range \$1 \$2;
#X msg 358 275 \; slideStart4 range \$1 \$2;
#X msg 501 242 \; slideEnd4 set \$1;
#X msg 492 212 \; slideStart4 set 0;
#X obj 483 171 arraysize sample4;
#X obj 548 192 s size4;
#X msg 483 108 read -resize \$1 sample4;
#X obj 365 74 r slideEnd4_snd;
#X obj 274 131 r slideStart4_snd;
#X obj 316 161 bang;
#X obj 316 191 -;
#X connect 0 0 16 0;
#X connect 1 0 0 0;
#X connect 2 0 1 1;
#X connect 3 0 5 0;
#X connect 5 0 1 0;
#X connect 6 0 2 0;
#X connect 7 0 27 0;
#X connect 8 0 12 0;
#X connect 8 0 17 0;
#X connect 8 1 12 1;
#X connect 8 1 18 0;
#X connect 9 0 17 0;
#X connect 10 0 18 0;
#X connect 11 0 19 0;
#X connect 12 0 14 0;
#X connect 13 0 14 1;
#X connect 14 0 16 1;
#X connect 15 0 19 0;
#X connect 16 0 4 0;
#X connect 20 0 21 0;
#X connect 21 0 27 1;
#X connect 22 0 54 0;
#X connect 23 0 34 0;
#X connect 24 0 22 0;
#X connect 25 0 26 0;
#X connect 25 0 47 0;
#X connect 25 0 39 0;
#X connect 26 0 28 0;
#X connect 27 0 46 0;
#X connect 27 0 25 0;
#X connect 27 0 32 0;
#X connect 28 0 3 0;
#X connect 29 0 31 0;
#X connect 30 0 29 0;
#X connect 31 0 26 0;
#X connect 32 0 3 0;
#X connect 33 0 36 1;
#X connect 33 0 35 0;
#X connect 33 0 51 0;
#X connect 33 0 50 0;
#X connect 34 0 52 0;
#X connect 35 0 36 0;
#X connect 36 0 49 0;
#X connect 36 0 48 0;
#X connect 37 0 52 0;
#X connect 38 0 39 1;
#X connect 39 0 44 0;
#X connect 40 0 42 0;
#X connect 40 0 43 0;
#X connect 41 0 38 0;
#X connect 42 0 43 1;
#X connect 43 0 58 0;
#X connect 44 0 2 0;
#X connect 45 0 30 0;
#X connect 52 0 33 0;
#X connect 52 0 42 0;
#X connect 52 0 43 0;
#X connect 52 0 53 0;
#X connect 54 0 23 0;
#X connect 55 0 40 0;
#X connect 55 0 42 1;
#X connect 56 0 31 1;
#X connect 56 0 32 1;
#X connect 56 0 57 0;
#X connect 56 0 58 1;
#X connect 57 0 58 0;
#X connect 58 0 41 0;
#X restore 1140 178 pd sampler4----;
#X obj 1006 100 hsl 100 10 0 2686 0 0 slideStart2_snd slideStart2 empty
-2 -8 0 10 -262144 -1 -1 0 1;
#X obj 1006 116 hsl 100 10 0 2686 0 0 slideEnd2_snd slideEnd2 empty
-2 -8 0 10 -262144 -1 -1 9900 1;
#X obj 1121 100 hsl 100 10 0 17199 0 0 slideStart3_snd slideStart3
empty -2 -8 0 10 -262144 -1 -1 0 1;
#X obj 1121 116 hsl 100 10 0 17199 0 0 slideEnd3_snd slideEnd3 empty
-2 -8 0 10 -262144 -1 -1 9900 1;
#X obj 1235 100 hsl 100 10 0 36273 0 0 slideStart4_snd slideStart4
empty -2 -8 0 10 -262144 -1 -1 0 1;
#X obj 1235 116 hsl 100 10 0 36273 0 0 slideEnd4_snd slideEnd4 empty
-2 -8 0 10 -262144 -1 -1 9900 1;
#N canvas 255 227 450 300 metro-div 0;
#X obj 201 54 inlet;
#X obj 89 56 inlet;
#X obj 155 81 delay 1;
#X obj 155 105 bang;
#X obj 155 136 f;
#X obj 155 166 / 1;
#X obj 89 208 metro 200;
#X obj 99 112 r tempo;
#X obj 235 151 f;
#X obj 207 132 bang;
#X obj 91 241 outlet;
#X obj 272 70 loadbang;
#X msg 272 93 1;
#X connect 0 0 2 0;
#X connect 0 0 5 1;
#X connect 0 0 8 1;
#X connect 1 0 6 0;
#X connect 2 0 3 0;
#X connect 3 0 4 0;
#X connect 4 0 5 0;
#X connect 5 0 6 1;
#X connect 6 0 10 0;
#X connect 7 0 4 0;
#X connect 7 0 9 0;
#X connect 8 0 5 1;
#X connect 9 0 8 0;
#X connect 11 0 12 0;
#X connect 12 0 8 1;
#X restore 58 83 pd metro-div;
#X obj 192 89 s tempo;
#X floatatom 139 66 5 0.5 2 0 - div1 -;
#N canvas 255 227 450 300 metro-div 0;
#X obj 201 54 inlet;
#X obj 89 56 inlet;
#X obj 155 81 delay 1;
#X obj 155 105 bang;
#X obj 155 136 f;
#X obj 155 166 / 1;
#X obj 89 208 metro 200;
#X obj 99 112 r tempo;
#X obj 235 151 f;
#X obj 207 132 bang;
#X obj 91 241 outlet;
#X obj 272 70 loadbang;
#X msg 272 93 1;
#X connect 0 0 2 0;
#X connect 0 0 5 1;
#X connect 0 0 8 1;
#X connect 1 0 6 0;
#X connect 2 0 3 0;
#X connect 3 0 4 0;
#X connect 4 0 5 0;
#X connect 5 0 6 1;
#X connect 6 0 10 0;
#X connect 7 0 4 0;
#X connect 7 0 9 0;
#X connect 8 0 5 1;
#X connect 9 0 8 0;
#X connect 11 0 12 0;
#X connect 12 0 8 1;
#X restore 58 595 pd metro-div;
#X floatatom 139 581 5 0.5 2 0 - - -;
#N canvas 257 223 450 300 metro-div 0;
#X obj 201 54 inlet;
#X obj 89 56 inlet;
#X obj 155 81 delay 1;
#X obj 155 105 bang;
#X obj 155 136 f;
#X obj 89 208 metro 200;
#X obj 99 112 r tempo;
#X obj 235 151 f;
#X obj 207 132 bang;
#X obj 91 241 outlet;
#X obj 155 166 / 1;
#X obj 272 70 loadbang;
#X msg 272 93 1;
#X connect 0 0 2 0;
#X connect 0 0 7 1;
#X connect 0 0 10 1;
#X connect 1 0 5 0;
#X connect 2 0 3 0;
#X connect 3 0 4 0;
#X connect 4 0 10 0;
#X connect 5 0 9 0;
#X connect 6 0 4 0;
#X connect 6 0 8 0;
#X connect 7 0 10 1;
#X connect 8 0 7 0;
#X connect 10 0 5 1;
#X connect 11 0 12 0;
#X connect 12 0 7 1;
#X restore 58 178 pd metro-div;
#X floatatom 139 164 5 0.5 2 0 - - -;
#N canvas 255 227 450 300 metro-div 0;
#X obj 201 54 inlet;
#X obj 89 56 inlet;
#X obj 155 81 delay 1;
#X obj 155 105 bang;
#X obj 155 136 f;
#X obj 155 166 / 1;
#X obj 89 208 metro 200;
#X obj 99 112 r tempo;
#X obj 235 151 f;
#X obj 207 132 bang;
#X obj 91 241 outlet;
#X obj 272 70 loadbang;
#X msg 272 93 1;
#X connect 0 0 2 0;
#X connect 0 0 5 1;
#X connect 0 0 8 1;
#X connect 1 0 6 0;
#X connect 2 0 3 0;
#X connect 3 0 4 0;
#X connect 4 0 5 0;
#X connect 5 0 6 1;
#X connect 6 0 10 0;
#X connect 7 0 4 0;
#X connect 7 0 9 0;
#X connect 8 0 5 1;
#X connect 9 0 8 0;
#X connect 11 0 12 0;
#X connect 12 0 8 1;
#X restore 58 250 pd metro-div;
#X floatatom 139 236 5 0.5 2 0 - - -;
#N canvas 256 225 450 300 metro-div 0;
#X obj 201 54 inlet;
#X obj 89 56 inlet;
#X obj 155 81 delay 1;
#X obj 155 105 bang;
#X obj 155 136 f;
#X obj 155 166 / 1;
#X obj 89 208 metro 200;
#X obj 99 112 r tempo;
#X obj 235 151 f;
#X obj 207 132 bang;
#X obj 91 241 outlet;
#X obj 272 70 loadbang;
#X msg 272 93 1;
#X connect 0 0 2 0;
#X connect 0 0 5 1;
#X connect 0 0 8 1;
#X connect 1 0 6 0;
#X connect 2 0 3 0;
#X connect 3 0 4 0;
#X connect 4 0 5 0;
#X connect 5 0 6 1;
#X connect 6 0 10 0;
#X connect 7 0 4 0;
#X connect 7 0 9 0;
#X connect 8 0 5 1;
#X connect 9 0 8 0;
#X connect 11 0 12 0;
#X connect 12 0 8 1;
#X restore 58 321 pd metro-div;
#X floatatom 139 307 5 0.5 2 0 - - -;
#N canvas 256 225 450 300 metro-div 0;
#X obj 201 54 inlet;
#X obj 89 56 inlet;
#X obj 155 81 delay 1;
#X obj 155 105 bang;
#X obj 155 136 f;
#X obj 155 166 / 1;
#X obj 89 208 metro 200;
#X obj 99 112 r tempo;
#X obj 235 151 f;
#X obj 207 132 bang;
#X obj 91 241 outlet;
#X obj 272 70 loadbang;
#X msg 272 93 1;
#X connect 0 0 2 0;
#X connect 0 0 5 1;
#X connect 0 0 8 1;
#X connect 1 0 6 0;
#X connect 2 0 3 0;
#X connect 3 0 4 0;
#X connect 4 0 5 0;
#X connect 5 0 6 1;
#X connect 6 0 10 0;
#X connect 7 0 4 0;
#X connect 7 0 9 0;
#X connect 8 0 5 1;
#X connect 9 0 8 0;
#X connect 11 0 12 0;
#X connect 12 0 8 1;
#X restore 58 393 pd metro-div;
#X floatatom 139 379 5 0.5 2 0 - - -;
#N canvas 255 227 449 300 metro-div 0;
#X obj 201 54 inlet;
#X obj 89 56 inlet;
#X obj 155 81 delay 1;
#X obj 155 105 bang;
#X obj 155 136 f;
#X obj 155 166 / 1;
#X obj 89 208 metro 200;
#X obj 99 112 r tempo;
#X obj 235 151 f;
#X obj 207 132 bang;
#X obj 91 241 outlet;
#X obj 272 70 loadbang;
#X msg 272 93 1;
#X connect 0 0 2 0;
#X connect 0 0 5 1;
#X connect 0 0 8 1;
#X connect 1 0 6 0;
#X connect 2 0 3 0;
#X connect 3 0 4 0;
#X connect 4 0 5 0;
#X connect 5 0 6 1;
#X connect 6 0 10 0;
#X connect 7 0 4 0;
#X connect 7 0 9 0;
#X connect 8 0 5 1;
#X connect 9 0 8 0;
#X connect 11 0 12 0;
#X connect 12 0 8 1;
#X restore 58 461 pd metro-div;
#X floatatom 139 447 5 0.5 2 0 - - -;
#N canvas 256 225 450 300 metro-div 0;
#X obj 201 54 inlet;
#X obj 89 56 inlet;
#X obj 155 81 delay 1;
#X obj 155 105 bang;
#X obj 155 136 f;
#X obj 155 166 / 1;
#X obj 89 208 metro 200;
#X obj 99 112 r tempo;
#X obj 235 151 f;
#X obj 207 132 bang;
#X obj 91 241 outlet;
#X obj 272 70 loadbang;
#X msg 272 93 1;
#X connect 0 0 2 0;
#X connect 0 0 5 1;
#X connect 0 0 8 1;
#X connect 1 0 6 0;
#X connect 2 0 3 0;
#X connect 3 0 4 0;
#X connect 4 0 5 0;
#X connect 5 0 6 1;
#X connect 6 0 10 0;
#X connect 7 0 4 0;
#X connect 7 0 9 0;
#X connect 8 0 5 1;
#X connect 9 0 8 0;
#X connect 11 0 12 0;
#X connect 12 0 8 1;
#X restore 58 528 pd metro-div;
#X floatatom 139 514 5 0.5 2 0 - - -;
#X floatatom 960 369 4 0 100 0 - - -;
#N canvas 1 53 1351 687 reverb..... 0;
#X obj 119 105 inlet~;
#X obj 119 289 outlet~;
#X obj 119 222 freeverb~;
#X msg 249 195 roomsize \$1;
#X msg 327 194 damping \$1;
#X msg 402 191 width \$1;
#X msg 463 198 wet \$1;
#X msg 511 199 dry \$1;
#X msg 561 200 freeze \$1;
#X obj 246 76 inlet;
#X obj 322 77 inlet;
#X obj 391 75 inlet;
#X obj 467 76 inlet;
#X obj 516 68 inlet;
#X obj 558 71 inlet;
#X obj 678 52 loadbang;
#X msg 678 82 1;
#X obj 614 49 loadbang;
#X msg 611 80 0;
#X obj 247 132 / 100;
#X obj 326 131 / 100;
#X obj 397 130 / 100;
#X obj 476 129 / 100;
#X obj 521 113 / 100;
#X connect 0 0 2 0;
#X connect 2 0 1 0;
#X connect 3 0 2 0;
#X connect 4 0 2 0;
#X connect 5 0 2 0;
#X connect 6 0 2 0;
#X connect 7 0 2 0;
#X connect 8 0 2 0;
#X connect 9 0 19 0;
#X connect 10 0 20 0;
#X connect 12 0 21 0;
#X connect 13 0 22 0;
#X connect 14 0 23 0;
#X connect 15 0 16 0;
#X connect 16 0 7 0;
#X connect 17 0 18 0;
#X connect 18 0 6 0;
#X connect 19 0 3 0;
#X connect 20 0 4 0;
#X connect 21 0 5 0;
#X connect 22 0 6 0;
#X connect 23 0 7 0;
#X restore 949 385 pd reverb.....;
#X floatatom 989 369 4 0 100 0 - - -;
#X floatatom 1018 369 4 0 100 0 - - -;
#X floatatom 1047 369 4 0 100 0 - - -;
#X floatatom 1076 369 4 0 100 0 - - -;
#X floatatom 1106 369 2 0 1 0 - - -;
#X floatatom 771 370 4 0 100 0 - - -;
#N canvas 1 53 1351 687 reverb..... 0;
#X obj 119 105 inlet~;
#X obj 119 289 outlet~;
#X obj 119 222 freeverb~;
#X msg 249 195 roomsize \$1;
#X msg 327 194 damping \$1;
#X msg 402 191 width \$1;
#X msg 463 198 wet \$1;
#X msg 511 199 dry \$1;
#X msg 561 200 freeze \$1;
#X obj 246 76 inlet;
#X obj 322 77 inlet;
#X obj 391 75 inlet;
#X obj 467 76 inlet;
#X obj 516 68 inlet;
#X obj 558 71 inlet;
#X obj 678 52 loadbang;
#X msg 678 82 1;
#X obj 614 49 loadbang;
#X msg 611 80 0;
#X obj 247 132 / 100;
#X obj 326 131 / 100;
#X obj 397 130 / 100;
#X obj 476 129 / 100;
#X obj 521 113 / 100;
#X connect 0 0 2 0;
#X connect 2 0 1 0;
#X connect 3 0 2 0;
#X connect 4 0 2 0;
#X connect 5 0 2 0;
#X connect 6 0 2 0;
#X connect 7 0 2 0;
#X connect 8 0 2 0;
#X connect 9 0 19 0;
#X connect 10 0 20 0;
#X connect 12 0 21 0;
#X connect 13 0 22 0;
#X connect 14 0 23 0;
#X connect 15 0 16 0;
#X connect 16 0 7 0;
#X connect 17 0 18 0;
#X connect 18 0 6 0;
#X connect 19 0 3 0;
#X connect 20 0 4 0;
#X connect 21 0 5 0;
#X connect 22 0 6 0;
#X connect 23 0 7 0;
#X restore 760 386 pd reverb.....;
#X floatatom 800 370 4 0 100 0 - - -;
#X floatatom 829 370 4 0 100 0 - - -;
#X floatatom 858 370 4 0 100 0 - - -;
#X floatatom 887 370 4 0 100 0 - - -;
#X floatatom 917 370 2 0 1 0 - - -;
#X floatatom 1151 370 4 0 100 0 - - -;
#N canvas 1 53 1351 687 reverb..... 0;
#X obj 119 105 inlet~;
#X obj 119 289 outlet~;
#X obj 119 222 freeverb~;
#X msg 249 195 roomsize \$1;
#X msg 327 194 damping \$1;
#X msg 402 191 width \$1;
#X msg 463 198 wet \$1;
#X msg 511 199 dry \$1;
#X msg 561 200 freeze \$1;
#X obj 246 76 inlet;
#X obj 322 77 inlet;
#X obj 391 75 inlet;
#X obj 467 76 inlet;
#X obj 516 68 inlet;
#X obj 558 71 inlet;
#X obj 678 52 loadbang;
#X msg 678 82 1;
#X obj 614 49 loadbang;
#X msg 611 80 0;
#X obj 247 132 / 100;
#X obj 326 131 / 100;
#X obj 397 130 / 100;
#X obj 476 129 / 100;
#X obj 521 113 / 100;
#X connect 0 0 2 0;
#X connect 2 0 1 0;
#X connect 3 0 2 0;
#X connect 4 0 2 0;
#X connect 5 0 2 0;
#X connect 6 0 2 0;
#X connect 7 0 2 0;
#X connect 8 0 2 0;
#X connect 9 0 19 0;
#X connect 10 0 20 0;
#X connect 12 0 21 0;
#X connect 13 0 22 0;
#X connect 14 0 23 0;
#X connect 15 0 16 0;
#X connect 16 0 7 0;
#X connect 17 0 18 0;
#X connect 18 0 6 0;
#X connect 19 0 3 0;
#X connect 20 0 4 0;
#X connect 21 0 5 0;
#X connect 22 0 6 0;
#X connect 23 0 7 0;
#X restore 1140 386 pd reverb.....;
#X floatatom 1180 370 4 0 100 0 - - -;
#X floatatom 1209 370 4 0 100 0 - - -;
#X floatatom 1238 370 4 0 100 0 - - -;
#X floatatom 1267 370 4 0 100 0 - - -;
#X floatatom 1297 370 2 0 1 0 - - -;
#X floatatom 578 370 4 0 100 0 - - -;
#N canvas 0 53 1351 687 reverb..... 0;
#X obj 119 105 inlet~;
#X obj 119 289 outlet~;
#X obj 119 222 freeverb~;
#X msg 249 195 roomsize \$1;
#X msg 327 194 damping \$1;
#X msg 402 191 width \$1;
#X msg 463 198 wet \$1;
#X msg 511 199 dry \$1;
#X msg 561 200 freeze \$1;
#X obj 246 76 inlet;
#X obj 322 77 inlet;
#X obj 391 75 inlet;
#X obj 467 76 inlet;
#X obj 516 68 inlet;
#X obj 558 71 inlet;
#X obj 678 52 loadbang;
#X msg 678 82 1;
#X obj 614 49 loadbang;
#X msg 611 80 0;
#X obj 247 132 / 100;
#X obj 326 131 / 100;
#X obj 397 130 / 100;
#X obj 476 129 / 100;
#X obj 521 113 / 100;
#X connect 0 0 2 0;
#X connect 2 0 1 0;
#X connect 3 0 2 0;
#X connect 4 0 2 0;
#X connect 5 0 2 0;
#X connect 6 0 2 0;
#X connect 7 0 2 0;
#X connect 8 0 2 0;
#X connect 9 0 19 0;
#X connect 10 0 20 0;
#X connect 12 0 21 0;
#X connect 13 0 22 0;
#X connect 14 0 23 0;
#X connect 15 0 16 0;
#X connect 16 0 7 0;
#X connect 17 0 18 0;
#X connect 18 0 6 0;
#X connect 19 0 3 0;
#X connect 20 0 4 0;
#X connect 21 0 5 0;
#X connect 22 0 6 0;
#X connect 23 0 7 0;
#X restore 567 386 pd reverb.....;
#X floatatom 607 370 4 0 100 0 - - -;
#X floatatom 636 370 4 0 100 0 - - -;
#X floatatom 665 370 4 0 100 0 - - -;
#X floatatom 694 370 4 0 100 0 - - -;
#X floatatom 724 370 2 0 1 0 - - -;
#X text 519 13 Subpatches : sampler : playbackrate(midi_note) > select
file > sample adc left channel > sample adc right chan > resamp > adc
thru > bypass-seq;
#X text 520 68 delay : ms > feedback > lfo rate > lfo width > dry >
wet;
#X text 519 82 reverb : roomsize > damp > width > wet > dry > freeze
;
#N canvas 4 52 1351 685 stepsequencer..in.metro>toggles>stepnb..out.stepnb>bngout
0;
#X obj 101 242 inlet;
#X obj 1054 355 outlet;
#X obj 68 264 bang;
#X obj 68 288 spigot;
#X obj 170 245 inlet;
#X obj 137 265 bang;
#X obj 137 289 spigot;
#X obj 241 244 inlet;
#X obj 208 266 bang;
#X obj 208 290 spigot;
#X obj 300 246 inlet;
#X obj 269 268 bang;
#X obj 271 291 spigot;
#X obj 358 245 inlet;
#X obj 329 267 bang;
#X obj 330 291 spigot;
#X obj 416 248 inlet;
#X obj 384 270 bang;
#X obj 384 291 spigot;
#X obj 476 250 inlet;
#X obj 444 272 bang;
#X obj 444 296 spigot;
#X obj 523 254 inlet;
#X obj 498 276 bang;
#X obj 500 299 spigot;
#X obj 601 252 inlet;
#X obj 570 274 bang;
#X obj 570 298 spigot;
#X obj 661 256 inlet;
#X obj 630 278 bang;
#X obj 630 302 spigot;
#X obj 726 258 inlet;
#X obj 695 280 bang;
#X obj 695 304 spigot;
#X obj 793 262 inlet;
#X obj 762 284 bang;
#X obj 764 307 spigot;
#X obj 859 264 inlet;
#X obj 830 286 bang;
#X obj 828 310 spigot;
#X obj 942 268 inlet;
#X obj 911 290 bang;
#X obj 911 311 spigot;
#X obj 1001 270 inlet;
#X obj 970 292 bang;
#X obj 970 316 spigot;
#X obj 1083 274 inlet;
#X obj 1033 296 bang;
#X obj 1035 319 spigot;
#X obj 68 68 f;
#X obj 95 68 + 1;
#X obj 68 93 % 16;
#X obj 68 121 sel 0 1 2 3 4 5 6 7 8 9 10 11 12 13 14;
#X obj 68 36 inlet;
#X obj 1203 39 inlet;
#X obj 12 162 outlet;
#X connect 0 0 3 1;
#X connect 2 0 3 0;
#X connect 3 0 1 0;
#X connect 4 0 6 1;
#X connect 5 0 6 0;
#X connect 6 0 1 0;
#X connect 7 0 9 1;
#X connect 8 0 9 0;
#X connect 9 0 1 0;
#X connect 10 0 12 1;
#X connect 11 0 12 0;
#X connect 12 0 1 0;
#X connect 13 0 15 1;
#X connect 14 0 15 0;
#X connect 15 0 1 0;
#X connect 16 0 18 1;
#X connect 17 0 18 0;
#X connect 18 0 1 0;
#X connect 19 0 21 1;
#X connect 20 0 21 0;
#X connect 21 0 1 0;
#X connect 22 0 24 1;
#X connect 23 0 24 0;
#X connect 24 0 1 0;
#X connect 25 0 27 1;
#X connect 26 0 27 0;
#X connect 27 0 1 0;
#X connect 28 0 30 1;
#X connect 29 0 30 0;
#X connect 30 0 1 0;
#X connect 31 0 33 1;
#X connect 32 0 33 0;
#X connect 33 0 1 0;
#X connect 34 0 36 1;
#X connect 35 0 36 0;
#X connect 36 0 1 0;
#X connect 37 0 39 1;
#X connect 38 0 39 0;
#X connect 39 0 1 0;
#X connect 40 0 42 1;
#X connect 41 0 42 0;
#X connect 42 0 1 0;
#X connect 43 0 45 1;
#X connect 44 0 45 0;
#X connect 45 0 1 0;
#X connect 46 0 48 1;
#X connect 47 0 48 0;
#X connect 48 0 1 0;
#X connect 49 0 50 0;
#X connect 49 0 51 0;
#X connect 50 0 49 1;
#X connect 51 0 52 0;
#X connect 51 0 55 0;
#X connect 52 0 2 0;
#X connect 52 1 5 0;
#X connect 52 2 8 0;
#X connect 52 3 11 0;
#X connect 52 4 14 0;
#X connect 52 5 17 0;
#X connect 52 6 20 0;
#X connect 52 7 23 0;
#X connect 52 8 26 0;
#X connect 52 9 29 0;
#X connect 52 10 32 0;
#X connect 52 11 35 0;
#X connect 52 12 38 0;
#X connect 52 13 41 0;
#X connect 52 14 44 0;
#X connect 52 15 47 0;
#X connect 53 0 49 0;
#X connect 54 0 51 1;
#X restore 58 145 pd stepsequencer..in.metro>toggles>stepnb..out.stepnb>bngout
;
#X floatatom 727 320 4 0 100 0 - - -;
#X floatatom 698 320 4 0 100 0 - - -;
#X floatatom 608 320 5 0 100 0 - - -;
#X floatatom 574 320 5 0 16000 0 - - -;
#N canvas 5 51 1351 687 delay1 0;
#X obj 151 166 inlet~;
#X obj 481 84 inlet;
#X obj 356 17 inlet;
#X obj 117 520 +~;
#X obj 357 156 *~;
#X obj 481 117 / 100;
#X obj 1040 63 inlet;
#X obj 103 357 *~ 1;
#X obj 302 325 *~ 0;
#X obj 116 572 outlet~;
#X obj 863 54 inlet;
#X obj 824 103 / 100;
#X obj 969 137 / 100;
#X obj 150 205 delwrite~ delay1 16000;
#X obj 357 112 vd~ delay1 50;
#X obj 356 49 sig~;
#X obj 356 79 +~;
#X obj 581 40 osc~;
#X obj 582 61 *~;
#X obj 581 19 inlet;
#X obj 619 44 inlet;
#X connect 0 0 7 0;
#X connect 0 0 13 0;
#X connect 1 0 5 0;
#X connect 2 0 15 0;
#X connect 3 0 9 0;
#X connect 4 0 13 0;
#X connect 5 0 4 1;
#X connect 6 0 12 0;
#X connect 7 0 3 0;
#X connect 8 0 3 1;
#X connect 10 0 11 0;
#X connect 11 0 7 1;
#X connect 12 0 8 1;
#X connect 14 0 4 0;
#X connect 14 0 8 0;
#X connect 15 0 16 0;
#X connect 16 0 14 0;
#X connect 17 0 18 0;
#X connect 18 0 16 1;
#X connect 19 0 17 0;
#X connect 20 0 18 1;
#X restore 566 336 pd delay1;
#X floatatom 641 320 4 0 0 0 - - -;
#X floatatom 669 320 4 0 0 0 - - -;
#X floatatom 921 325 4 0 100 0 - - -;
#X floatatom 892 325 4 0 100 0 - - -;
#X floatatom 801 325 5 0 100 0 - - -;
#X floatatom 767 325 5 0 16000 0 - - -;
#X floatatom 834 325 4 0 0 0 - - -;
#X floatatom 863 325 4 0 0 0 - - -;
#N canvas 11 52 1351 687 delay2 0;
#X obj 151 166 inlet~;
#X obj 481 84 inlet;
#X obj 356 17 inlet;
#X obj 117 520 +~;
#X obj 357 156 *~;
#X obj 481 117 / 100;
#X obj 1040 63 inlet;
#X obj 103 357 *~ 1;
#X obj 302 325 *~ 0;
#X obj 116 572 outlet~;
#X obj 863 54 inlet;
#X obj 824 103 / 100;
#X obj 969 137 / 100;
#X obj 356 49 sig~;
#X obj 356 79 +~;
#X obj 581 40 osc~;
#X obj 582 61 *~;
#X obj 581 19 inlet;
#X obj 619 44 inlet;
#X obj 150 205 delwrite~ delay2 16000;
#X obj 357 112 vd~ delay2 50;
#X connect 0 0 7 0;
#X connect 0 0 19 0;
#X connect 1 0 5 0;
#X connect 2 0 13 0;
#X connect 3 0 9 0;
#X connect 4 0 19 0;
#X connect 5 0 4 1;
#X connect 6 0 12 0;
#X connect 7 0 3 0;
#X connect 8 0 3 1;
#X connect 10 0 11 0;
#X connect 11 0 7 1;
#X connect 12 0 8 1;
#X connect 13 0 14 0;
#X connect 14 0 20 0;
#X connect 15 0 16 0;
#X connect 16 0 14 1;
#X connect 17 0 15 0;
#X connect 18 0 16 1;
#X connect 20 0 4 0;
#X connect 20 0 8 0;
#X restore 759 341 pd delay2;
#X floatatom 1111 329 4 0 100 0 - - -;
#X floatatom 1082 329 4 0 100 0 - - -;
#X floatatom 992 329 5 0 100 0 - - -;
#X floatatom 958 329 5 0 16000 0 - - -;
#X floatatom 1025 329 4 0 0 0 - - -;
#X floatatom 1053 329 4 0 0 0 - - -;
#X floatatom 1301 330 4 0 100 0 - - -;
#X floatatom 1272 330 4 0 100 0 - - -;
#X floatatom 1181 330 5 0 100 0 - - -;
#X floatatom 1147 330 5 0 16000 0 - - -;
#X floatatom 1214 330 4 0 0 0 - - -;
#X floatatom 1243 330 4 0 0 0 - - -;
#X obj 759 214 hip~;
#X obj 759 278 lop~;
#X obj 783 260 hsl 120 15 0 20000 0 0 empty empty empty -2 -8 0 10
-262144 -1 -1 11900 1;
#X obj 783 198 hsl 120 15 0 20000 0 0 empty empty empty -2 -8 0 10
-262144 -1 -1 0 1;
#X obj 793 220 loadbang;
#X msg 793 240 20000;
#X obj 759 231 hip~;
#X obj 759 296 lop~;
#X obj 949 215 hip~;
#X obj 949 279 lop~;
#X obj 973 261 hsl 120 15 0 20000 0 0 empty empty empty -2 -8 0 10
-262144 -1 -1 11900 1;
#X obj 973 199 hsl 120 15 0 20000 0 0 empty empty empty -2 -8 0 10
-262144 -1 -1 0 1;
#X obj 983 221 loadbang;
#X msg 983 241 20000;
#X obj 949 232 hip~;
#X obj 949 297 lop~;
#X obj 1140 217 hip~;
#X obj 1140 281 lop~;
#X obj 1164 263 hsl 120 15 0 20000 0 0 empty empty empty -2 -8 0 10
-262144 -1 -1 11900 1;
#X obj 1164 201 hsl 120 15 0 20000 0 0 empty empty empty -2 -8 0 10
-262144 -1 -1 0 1;
#X obj 1174 223 loadbang;
#X msg 1174 243 20000;
#X obj 1140 234 hip~;
#X obj 1140 299 lop~;
#N canvas 7 51 1351 687 delay3 0;
#X obj 151 166 inlet~;
#X obj 481 84 inlet;
#X obj 356 17 inlet;
#X obj 117 520 +~;
#X obj 357 156 *~;
#X obj 481 117 / 100;
#X obj 1040 63 inlet;
#X obj 103 357 *~ 1;
#X obj 302 325 *~ 0;
#X obj 116 572 outlet~;
#X obj 863 54 inlet;
#X obj 824 103 / 100;
#X obj 969 137 / 100;
#X obj 356 49 sig~;
#X obj 356 79 +~;
#X obj 581 40 osc~;
#X obj 582 61 *~;
#X obj 581 19 inlet;
#X obj 619 44 inlet;
#X obj 150 205 delwrite~ delay3 16000;
#X obj 357 112 vd~ delay3 50;
#X connect 0 0 7 0;
#X connect 0 0 19 0;
#X connect 1 0 5 0;
#X connect 2 0 13 0;
#X connect 3 0 9 0;
#X connect 4 0 19 0;
#X connect 5 0 4 1;
#X connect 6 0 12 0;
#X connect 7 0 3 0;
#X connect 8 0 3 1;
#X connect 10 0 11 0;
#X connect 11 0 7 1;
#X connect 12 0 8 1;
#X connect 13 0 14 0;
#X connect 14 0 20 0;
#X connect 15 0 16 0;
#X connect 16 0 14 1;
#X connect 17 0 15 0;
#X connect 18 0 16 1;
#X connect 20 0 4 0;
#X connect 20 0 8 0;
#X restore 950 345 pd delay3;
#N canvas 11 51 1351 687 delay4 0;
#X obj 151 166 inlet~;
#X obj 481 84 inlet;
#X obj 356 17 inlet;
#X obj 117 520 +~;
#X obj 357 156 *~;
#X obj 481 117 / 100;
#X obj 1040 63 inlet;
#X obj 103 357 *~ 1;
#X obj 302 325 *~ 0;
#X obj 116 572 outlet~;
#X obj 863 54 inlet;
#X obj 824 103 / 100;
#X obj 969 137 / 100;
#X obj 356 49 sig~;
#X obj 356 79 +~;
#X obj 581 40 osc~;
#X obj 582 61 *~;
#X obj 581 19 inlet;
#X obj 619 44 inlet;
#X obj 150 205 delwrite~ delay4 16000;
#X obj 357 112 vd~ delay4 50;
#X connect 0 0 7 0;
#X connect 0 0 19 0;
#X connect 1 0 5 0;
#X connect 2 0 13 0;
#X connect 3 0 9 0;
#X connect 4 0 19 0;
#X connect 5 0 4 1;
#X connect 6 0 12 0;
#X connect 7 0 3 0;
#X connect 8 0 3 1;
#X connect 10 0 11 0;
#X connect 11 0 7 1;
#X connect 12 0 8 1;
#X connect 13 0 14 0;
#X connect 14 0 20 0;
#X connect 15 0 16 0;
#X connect 16 0 14 1;
#X connect 17 0 15 0;
#X connect 18 0 16 1;
#X connect 20 0 4 0;
#X connect 20 0 8 0;
#X restore 1139 346 pd delay4;
#N canvas 11 51 1351 686 selectsend 0;
#X obj -281 28 inlet;
#X obj -245 195 s pitch1;
#X obj -246 172 spigot;
#X obj -180 177 spigot;
#X obj -180 213 s slideStart1;
#X obj -180 195 maxlib/scale 0 100 0 0 0;
#X obj -68 172 r size1;
#X obj -13 169 spigot;
#X obj -13 187 maxlib/scale 0 100 0 0 0;
#X obj 99 166 r size1;
#X obj -13 205 s slideEnd1;
#X obj -394 18 sel 1 2 3 4;
#X obj -206 269 spigot;
#X obj -138 269 spigot;
#X obj -138 287 maxlib/scale 0 100 0 0 0;
#X obj -26 267 r size1;
#X obj 26 269 spigot;
#X obj 26 288 maxlib/scale 0 100 0 0 0;
#X obj 138 268 r size1;
#X obj -206 286 s pitch2;
#X obj -138 305 s slideStart2;
#X obj 26 306 s slideEnd2;
#X obj -171 411 spigot;
#X obj -103 411 spigot;
#X obj -103 429 maxlib/scale 0 100 0 0 0;
#X obj 9 409 r size1;
#X obj 61 411 spigot;
#X obj 61 430 maxlib/scale 0 100 0 0 0;
#X obj 173 410 r size1;
#X obj -171 428 s pitch3;
#X obj -103 447 s slideStart3;
#X obj 61 448 s slideEnd3;
#X obj -145 515 spigot;
#X obj -77 515 spigot;
#X obj -77 533 maxlib/scale 0 100 0 0 0;
#X obj 35 513 r size1;
#X obj 86 515 spigot;
#X obj 86 534 maxlib/scale 0 100 0 0 0;
#X obj 198 514 r size1;
#X obj -77 551 s slideStart4;
#X obj -145 532 s pitch4;
#X obj 86 552 s slideEnd4;
#X obj -234 44 inlet;
#X obj -21 56 inlet;
#X obj -111 54 inlet;
#X obj 351 48 inlet;
#X obj -230 237 spigot;
#X obj -281 141 spigot;
#X obj -197 478 spigot;
#X obj -216 374 spigot;
#X obj -259 116 tgl 15 0 empty empty empty 17 7 0 10 -262144 -1 -1
0 1;
#X obj -210 216 tgl 15 0 empty empty empty 17 7 0 10 -262144 -1 -1
0 1;
#X obj -187 349 tgl 15 0 empty empty empty 17 7 0 10 -262144 -1 -1
0 1;
#X obj -166 459 tgl 15 0 empty empty empty 17 7 0 10 -262144 -1 -1
0 1;
#X msg -342 406 0;
#X msg -280 553 0;
#X msg -384 283 0;
#X msg -415 189 0;
#X connect 0 0 47 0;
#X connect 0 0 46 0;
#X connect 0 0 49 0;
#X connect 0 0 48 0;
#X connect 2 0 1 0;
#X connect 3 0 5 0;
#X connect 5 0 4 0;
#X connect 6 0 5 4;
#X connect 7 0 8 0;
#X connect 8 0 10 0;
#X connect 9 0 8 4;
#X connect 11 0 50 0;
#X connect 11 0 57 0;
#X connect 11 1 51 0;
#X connect 11 1 56 0;
#X connect 11 2 52 0;
#X connect 11 2 54 0;
#X connect 11 3 53 0;
#X connect 11 3 55 0;
#X connect 11 4 50 0;
#X connect 11 4 57 0;
#X connect 12 0 19 0;
#X connect 13 0 14 0;
#X connect 14 0 20 0;
#X connect 15 0 14 4;
#X connect 16 0 17 0;
#X connect 17 0 21 0;
#X connect 18 0 17 4;
#X connect 22 0 29 0;
#X connect 23 0 24 0;
#X connect 24 0 30 0;
#X connect 25 0 24 4;
#X connect 26 0 27 0;
#X connect 27 0 31 0;
#X connect 28 0 27 4;
#X connect 32 0 40 0;
#X connect 33 0 34 0;
#X connect 34 0 39 0;
#X connect 35 0 34 4;
#X connect 36 0 37 0;
#X connect 37 0 41 0;
#X connect 38 0 37 4;
#X connect 42 0 2 1;
#X connect 42 0 12 1;
#X connect 42 0 22 1;
#X connect 42 0 32 1;
#X connect 43 0 7 1;
#X connect 43 0 16 1;
#X connect 43 0 26 1;
#X connect 43 0 36 1;
#X connect 44 0 3 1;
#X connect 44 0 13 1;
#X connect 44 0 23 1;
#X connect 44 0 33 1;
#X connect 45 0 11 0;
#X connect 46 0 12 0;
#X connect 46 0 13 0;
#X connect 46 0 16 0;
#X connect 47 0 2 0;
#X connect 47 0 3 0;
#X connect 47 0 7 0;
#X connect 48 0 32 0;
#X connect 48 0 33 0;
#X connect 48 0 36 0;
#X connect 49 0 22 0;
#X connect 49 0 23 0;
#X connect 49 0 26 0;
#X connect 50 0 47 1;
#X connect 51 0 46 1;
#X connect 52 0 49 1;
#X connect 53 0 48 1;
#X connect 54 0 51 0;
#X connect 54 0 50 0;
#X connect 54 0 53 0;
#X connect 55 0 51 0;
#X connect 55 0 50 0;
#X connect 55 0 52 0;
#X connect 56 0 50 0;
#X connect 56 0 52 0;
#X connect 56 0 53 0;
#X connect 57 0 51 0;
#X connect 57 0 52 0;
#X connect 57 0 53 0;
#X restore 182 518 pd selectsend;
#X floatatom 278 502 3 1 4 0 - - -;
#X obj 200 503 tgl 15 0 empty empty empty 17 7 0 10 -262144 -1 -1 0
1;
#X obj 226 503 tgl 15 0 empty empty empty 17 7 0 10 -262144 -1 -1 0
1;
#X obj 253 503 tgl 15 0 empty empty empty 17 7 0 10 -262144 -1 -1 0
1;
#N canvas 11 51 1351 686 selectsend 0;
#X obj -281 28 inlet;
#X obj -245 195 s pitch1;
#X obj -246 172 spigot;
#X obj -180 177 spigot;
#X obj -180 213 s slideStart1;
#X obj -180 195 maxlib/scale 0 100 0 0 0;
#X obj -68 172 r size1;
#X obj -13 169 spigot;
#X obj -13 187 maxlib/scale 0 100 0 0 0;
#X obj 99 166 r size1;
#X obj -13 205 s slideEnd1;
#X obj -394 18 sel 1 2 3 4;
#X obj -206 269 spigot;
#X obj -138 269 spigot;
#X obj -138 287 maxlib/scale 0 100 0 0 0;
#X obj -26 267 r size1;
#X obj 26 269 spigot;
#X obj 26 288 maxlib/scale 0 100 0 0 0;
#X obj 138 268 r size1;
#X obj -206 286 s pitch2;
#X obj -138 305 s slideStart2;
#X obj 26 306 s slideEnd2;
#X obj -171 411 spigot;
#X obj -103 411 spigot;
#X obj -103 429 maxlib/scale 0 100 0 0 0;
#X obj 9 409 r size1;
#X obj 61 411 spigot;
#X obj 61 430 maxlib/scale 0 100 0 0 0;
#X obj 173 410 r size1;
#X obj -171 428 s pitch3;
#X obj -103 447 s slideStart3;
#X obj 61 448 s slideEnd3;
#X obj -145 515 spigot;
#X obj -77 515 spigot;
#X obj -77 533 maxlib/scale 0 100 0 0 0;
#X obj 35 513 r size1;
#X obj 86 515 spigot;
#X obj 86 534 maxlib/scale 0 100 0 0 0;
#X obj 198 514 r size1;
#X obj -77 551 s slideStart4;
#X obj -145 532 s pitch4;
#X obj 86 552 s slideEnd4;
#X obj -234 44 inlet;
#X obj -21 56 inlet;
#X obj -111 54 inlet;
#X obj 351 48 inlet;
#X obj -230 237 spigot;
#X obj -281 141 spigot;
#X obj -197 478 spigot;
#X obj -216 374 spigot;
#X obj -259 116 tgl 15 0 empty empty empty 17 7 0 10 -262144 -1 -1
0 1;
#X obj -210 216 tgl 15 0 empty empty empty 17 7 0 10 -262144 -1 -1
0 1;
#X obj -187 349 tgl 15 0 empty empty empty 17 7 0 10 -262144 -1 -1
0 1;
#X obj -166 459 tgl 15 0 empty empty empty 17 7 0 10 -262144 -1 -1
0 1;
#X msg -342 406 0;
#X msg -280 553 0;
#X msg -384 283 0;
#X msg -415 189 0;
#X connect 0 0 47 0;
#X connect 0 0 46 0;
#X connect 0 0 49 0;
#X connect 0 0 48 0;
#X connect 2 0 1 0;
#X connect 3 0 5 0;
#X connect 5 0 4 0;
#X connect 6 0 5 4;
#X connect 7 0 8 0;
#X connect 8 0 10 0;
#X connect 9 0 8 4;
#X connect 11 0 50 0;
#X connect 11 0 57 0;
#X connect 11 1 51 0;
#X connect 11 1 56 0;
#X connect 11 2 52 0;
#X connect 11 2 54 0;
#X connect 11 3 53 0;
#X connect 11 3 55 0;
#X connect 11 4 50 0;
#X connect 11 4 57 0;
#X connect 12 0 19 0;
#X connect 13 0 14 0;
#X connect 14 0 20 0;
#X connect 15 0 14 4;
#X connect 16 0 17 0;
#X connect 17 0 21 0;
#X connect 18 0 17 4;
#X connect 22 0 29 0;
#X connect 23 0 24 0;
#X connect 24 0 30 0;
#X connect 25 0 24 4;
#X connect 26 0 27 0;
#X connect 27 0 31 0;
#X connect 28 0 27 4;
#X connect 32 0 40 0;
#X connect 33 0 34 0;
#X connect 34 0 39 0;
#X connect 35 0 34 4;
#X connect 36 0 37 0;
#X connect 37 0 41 0;
#X connect 38 0 37 4;
#X connect 42 0 2 1;
#X connect 42 0 12 1;
#X connect 42 0 22 1;
#X connect 42 0 32 1;
#X connect 43 0 7 1;
#X connect 43 0 16 1;
#X connect 43 0 26 1;
#X connect 43 0 36 1;
#X connect 44 0 3 1;
#X connect 44 0 13 1;
#X connect 44 0 23 1;
#X connect 44 0 33 1;
#X connect 45 0 11 0;
#X connect 46 0 12 0;
#X connect 46 0 13 0;
#X connect 46 0 16 0;
#X connect 47 0 2 0;
#X connect 47 0 3 0;
#X connect 47 0 7 0;
#X connect 48 0 32 0;
#X connect 48 0 33 0;
#X connect 48 0 36 0;
#X connect 49 0 22 0;
#X connect 49 0 23 0;
#X connect 49 0 26 0;
#X connect 50 0 47 1;
#X connect 51 0 46 1;
#X connect 52 0 49 1;
#X connect 53 0 48 1;
#X connect 54 0 51 0;
#X connect 54 0 50 0;
#X connect 54 0 53 0;
#X connect 55 0 51 0;
#X connect 55 0 50 0;
#X connect 55 0 52 0;
#X connect 56 0 50 0;
#X connect 56 0 52 0;
#X connect 56 0 53 0;
#X connect 57 0 51 0;
#X connect 57 0 52 0;
#X connect 57 0 53 0;
#X restore 181 585 pd selectsend;
#X floatatom 277 569 3 1 4 0 - - -;
#X obj 199 570 tgl 15 0 empty empty empty 17 7 0 10 -262144 -1 -1 0
1;
#X obj 225 570 tgl 15 0 empty empty empty 17 7 0 10 -262144 -1 -1 0
1;
#X obj 252 570 tgl 15 0 empty empty empty 17 7 0 10 -262144 -1 -1 0
1;
#N canvas 11 51 1351 686 selectsend 0;
#X obj -281 28 inlet;
#X obj -245 195 s pitch1;
#X obj -246 172 spigot;
#X obj -180 177 spigot;
#X obj -180 213 s slideStart1;
#X obj -180 195 maxlib/scale 0 100 0 0 0;
#X obj -68 172 r size1;
#X obj -13 169 spigot;
#X obj -13 187 maxlib/scale 0 100 0 0 0;
#X obj 99 166 r size1;
#X obj -13 205 s slideEnd1;
#X obj -394 18 sel 1 2 3 4;
#X obj -206 269 spigot;
#X obj -138 269 spigot;
#X obj -138 287 maxlib/scale 0 100 0 0 0;
#X obj -26 267 r size1;
#X obj 26 269 spigot;
#X obj 26 288 maxlib/scale 0 100 0 0 0;
#X obj 138 268 r size1;
#X obj -206 286 s pitch2;
#X obj -138 305 s slideStart2;
#X obj 26 306 s slideEnd2;
#X obj -171 411 spigot;
#X obj -103 411 spigot;
#X obj -103 429 maxlib/scale 0 100 0 0 0;
#X obj 9 409 r size1;
#X obj 61 411 spigot;
#X obj 61 430 maxlib/scale 0 100 0 0 0;
#X obj 173 410 r size1;
#X obj -171 428 s pitch3;
#X obj -103 447 s slideStart3;
#X obj 61 448 s slideEnd3;
#X obj -145 515 spigot;
#X obj -77 515 spigot;
#X obj -77 533 maxlib/scale 0 100 0 0 0;
#X obj 35 513 r size1;
#X obj 86 515 spigot;
#X obj 86 534 maxlib/scale 0 100 0 0 0;
#X obj 198 514 r size1;
#X obj -77 551 s slideStart4;
#X obj -145 532 s pitch4;
#X obj 86 552 s slideEnd4;
#X obj -234 44 inlet;
#X obj -21 56 inlet;
#X obj -111 54 inlet;
#X obj 351 48 inlet;
#X obj -230 237 spigot;
#X obj -281 141 spigot;
#X obj -197 478 spigot;
#X obj -216 374 spigot;
#X obj -259 116 tgl 15 0 empty empty empty 17 7 0 10 -262144 -1 -1
0 1;
#X obj -210 216 tgl 15 0 empty empty empty 17 7 0 10 -262144 -1 -1
0 1;
#X obj -187 349 tgl 15 0 empty empty empty 17 7 0 10 -262144 -1 -1
0 1;
#X obj -166 459 tgl 15 0 empty empty empty 17 7 0 10 -262144 -1 -1
0 1;
#X msg -342 406 0;
#X msg -280 553 0;
#X msg -384 283 0;
#X msg -415 189 0;
#X connect 0 0 47 0;
#X connect 0 0 46 0;
#X connect 0 0 49 0;
#X connect 0 0 48 0;
#X connect 2 0 1 0;
#X connect 3 0 5 0;
#X connect 5 0 4 0;
#X connect 6 0 5 4;
#X connect 7 0 8 0;
#X connect 8 0 10 0;
#X connect 9 0 8 4;
#X connect 11 0 50 0;
#X connect 11 0 57 0;
#X connect 11 1 51 0;
#X connect 11 1 56 0;
#X connect 11 2 52 0;
#X connect 11 2 54 0;
#X connect 11 3 53 0;
#X connect 11 3 55 0;
#X connect 11 4 50 0;
#X connect 11 4 57 0;
#X connect 12 0 19 0;
#X connect 13 0 14 0;
#X connect 14 0 20 0;
#X connect 15 0 14 4;
#X connect 16 0 17 0;
#X connect 17 0 21 0;
#X connect 18 0 17 4;
#X connect 22 0 29 0;
#X connect 23 0 24 0;
#X connect 24 0 30 0;
#X connect 25 0 24 4;
#X connect 26 0 27 0;
#X connect 27 0 31 0;
#X connect 28 0 27 4;
#X connect 32 0 40 0;
#X connect 33 0 34 0;
#X connect 34 0 39 0;
#X connect 35 0 34 4;
#X connect 36 0 37 0;
#X connect 37 0 41 0;
#X connect 38 0 37 4;
#X connect 42 0 2 1;
#X connect 42 0 12 1;
#X connect 42 0 22 1;
#X connect 42 0 32 1;
#X connect 43 0 7 1;
#X connect 43 0 16 1;
#X connect 43 0 26 1;
#X connect 43 0 36 1;
#X connect 44 0 3 1;
#X connect 44 0 13 1;
#X connect 44 0 23 1;
#X connect 44 0 33 1;
#X connect 45 0 11 0;
#X connect 46 0 12 0;
#X connect 46 0 13 0;
#X connect 46 0 16 0;
#X connect 47 0 2 0;
#X connect 47 0 3 0;
#X connect 47 0 7 0;
#X connect 48 0 32 0;
#X connect 48 0 33 0;
#X connect 48 0 36 0;
#X connect 49 0 22 0;
#X connect 49 0 23 0;
#X connect 49 0 26 0;
#X connect 50 0 47 1;
#X connect 51 0 46 1;
#X connect 52 0 49 1;
#X connect 53 0 48 1;
#X connect 54 0 51 0;
#X connect 54 0 50 0;
#X connect 54 0 53 0;
#X connect 55 0 51 0;
#X connect 55 0 50 0;
#X connect 55 0 52 0;
#X connect 56 0 50 0;
#X connect 56 0 52 0;
#X connect 56 0 53 0;
#X connect 57 0 51 0;
#X connect 57 0 52 0;
#X connect 57 0 53 0;
#X restore 182 649 pd selectsend;
#X floatatom 278 633 3 1 4 0 - - -;
#X obj 200 634 tgl 15 0 empty empty empty 17 7 0 10 -262144 -1 -1 0
1;
#X obj 226 634 tgl 15 0 empty empty empty 17 7 0 10 -262144 -1 -1 0
1;
#X obj 253 634 tgl 15 0 empty empty empty 17 7 0 10 -262144 -1 -1 0
1;
#X text 451 656;
#X text 450 653 number box determines at which voices you send the
data;
#X text 450 625 selectsend trig boxes : 1st = send to pitch \, 2nd
= start point \, 3rd = end point;
#X text 450 596 analogsequencer : 8 first number boxes = sequencing
\; 9nth = number of steps;
#X connect 1 0 221 0;
#X connect 1 0 226 0;
#X connect 1 0 228 0;
#X connect 1 0 230 0;
#X connect 1 0 232 0;
#X connect 1 0 234 0;
#X connect 1 0 236 0;
#X connect 1 0 224 0;
#X connect 2 0 3 0;
#X connect 3 0 132 0;
#X connect 4 0 269 1;
#X connect 5 0 269 2;
#X connect 6 0 269 3;
#X connect 7 0 269 4;
#X connect 8 0 269 5;
#X connect 9 0 269 6;
#X connect 10 0 269 7;
#X connect 11 0 269 8;
#X connect 12 0 269 9;
#X connect 13 0 269 10;
#X connect 14 0 269 11;
#X connect 15 0 269 12;
#X connect 16 0 269 13;
#X connect 17 0 269 14;
#X connect 18 0 269 15;
#X connect 19 0 269 16;
#X connect 20 0 132 1;
#X connect 21 0 132 1;
#X connect 22 0 132 1;
#X connect 24 0 269 17;
#X connect 26 0 43 1;
#X connect 27 0 43 2;
#X connect 28 0 43 3;
#X connect 29 0 43 4;
#X connect 30 0 43 5;
#X connect 31 0 43 6;
#X connect 32 0 43 7;
#X connect 33 0 43 8;
#X connect 34 0 43 9;
#X connect 35 0 43 10;
#X connect 36 0 43 11;
#X connect 37 0 43 12;
#X connect 38 0 43 13;
#X connect 39 0 43 14;
#X connect 40 0 43 15;
#X connect 41 0 43 16;
#X connect 43 0 42 0;
#X connect 43 1 83 0;
#X connect 44 0 43 17;
#X connect 45 0 62 1;
#X connect 46 0 62 2;
#X connect 47 0 62 3;
#X connect 48 0 62 4;
#X connect 49 0 62 5;
#X connect 50 0 62 6;
#X connect 51 0 62 7;
#X connect 52 0 62 8;
#X connect 53 0 62 9;
#X connect 54 0 62 10;
#X connect 55 0 62 11;
#X connect 56 0 62 12;
#X connect 57 0 62 13;
#X connect 58 0 62 14;
#X connect 59 0 62 15;
#X connect 60 0 62 16;
#X connect 62 0 61 0;
#X connect 62 1 84 0;
#X connect 63 0 62 17;
#X connect 64 0 81 1;
#X connect 65 0 81 2;
#X connect 66 0 81 3;
#X connect 67 0 81 4;
#X connect 68 0 81 5;
#X connect 69 0 81 6;
#X connect 70 0 81 7;
#X connect 71 0 81 8;
#X connect 72 0 81 9;
#X connect 73 0 81 10;
#X connect 74 0 81 11;
#X connect 75 0 81 12;
#X connect 76 0 81 13;
#X connect 77 0 81 14;
#X connect 78 0 81 15;
#X connect 79 0 81 16;
#X connect 81 0 80 0;
#X connect 81 1 85 0;
#X connect 82 0 81 17;
#X connect 87 0 140 0;
#X connect 89 0 180 1;
#X connect 91 0 140 0;
#X connect 92 0 91 1;
#X connect 95 0 180 2;
#X connect 96 0 180 3;
#X connect 97 0 180 4;
#X connect 98 0 180 5;
#X connect 99 0 156 0;
#X connect 100 0 157 0;
#X connect 102 0 101 0;
#X connect 102 0 87 0;
#X connect 103 0 87 1;
#X connect 104 0 100 1;
#X connect 104 0 157 1;
#X connect 105 0 99 1;
#X connect 105 0 156 1;
#X connect 106 0 91 0;
#X connect 106 0 145 0;
#X connect 107 0 212 1;
#X connect 108 0 212 2;
#X connect 109 0 212 3;
#X connect 110 0 212 4;
#X connect 111 0 212 5;
#X connect 112 0 140 0;
#X connect 113 0 140 0;
#X connect 114 0 113 1;
#X connect 115 0 112 0;
#X connect 115 0 118 0;
#X connect 116 0 112 1;
#X connect 117 0 113 0;
#X connect 117 0 119 0;
#X connect 120 0 213 1;
#X connect 121 0 213 2;
#X connect 122 0 213 3;
#X connect 123 0 213 4;
#X connect 124 0 213 5;
#X connect 125 0 214 1;
#X connect 126 0 214 2;
#X connect 127 0 214 3;
#X connect 128 0 214 4;
#X connect 129 0 214 5;
#X connect 130 0 131 0;
#X connect 131 0 104 0;
#X connect 132 0 88 0;
#X connect 132 0 222 0;
#X connect 133 0 180 0;
#X connect 134 0 106 2;
#X connect 134 0 135 0;
#X connect 135 0 106 1;
#X connect 136 0 43 0;
#X connect 136 0 62 0;
#X connect 136 0 81 0;
#X connect 136 0 158 0;
#X connect 136 0 169 0;
#X connect 136 0 185 0;
#X connect 136 0 196 0;
#X connect 136 0 269 0;
#X connect 137 0 212 0;
#X connect 138 0 213 0;
#X connect 139 0 214 0;
#X connect 140 0 181 0;
#X connect 141 0 91 1;
#X connect 142 0 87 1;
#X connect 143 0 112 1;
#X connect 144 0 113 1;
#X connect 146 0 147 0;
#X connect 146 0 102 2;
#X connect 147 0 102 1;
#X connect 148 0 149 0;
#X connect 148 0 117 2;
#X connect 149 0 117 1;
#X connect 150 0 151 0;
#X connect 150 0 115 2;
#X connect 151 0 115 1;
#X connect 152 0 180 6;
#X connect 153 0 212 6;
#X connect 154 0 213 6;
#X connect 155 0 214 6;
#X connect 156 0 100 0;
#X connect 157 0 274 0;
#X connect 158 0 159 0;
#X connect 158 1 207 0;
#X connect 160 0 158 1;
#X connect 161 0 158 2;
#X connect 162 0 158 3;
#X connect 163 0 158 4;
#X connect 164 0 158 5;
#X connect 165 0 158 6;
#X connect 166 0 158 7;
#X connect 167 0 158 8;
#X connect 168 0 158 9;
#X connect 169 0 170 0;
#X connect 169 1 322 0;
#X connect 171 0 169 1;
#X connect 172 0 169 2;
#X connect 173 0 169 3;
#X connect 174 0 169 4;
#X connect 175 0 169 5;
#X connect 176 0 169 6;
#X connect 177 0 169 7;
#X connect 178 0 169 8;
#X connect 179 0 169 9;
#X connect 180 0 99 0;
#X connect 182 0 0 0;
#X connect 182 0 0 1;
#X connect 185 0 186 0;
#X connect 185 1 327 0;
#X connect 187 0 185 1;
#X connect 188 0 185 2;
#X connect 189 0 185 3;
#X connect 190 0 185 4;
#X connect 191 0 185 5;
#X connect 192 0 185 6;
#X connect 193 0 185 7;
#X connect 194 0 185 8;
#X connect 195 0 185 9;
#X connect 196 0 197 0;
#X connect 196 1 332 0;
#X connect 198 0 196 1;
#X connect 199 0 196 2;
#X connect 200 0 196 3;
#X connect 201 0 196 4;
#X connect 202 0 196 5;
#X connect 203 0 196 6;
#X connect 204 0 196 7;
#X connect 205 0 196 8;
#X connect 206 0 196 9;
#X connect 208 0 207 4;
#X connect 209 0 207 1;
#X connect 210 0 207 2;
#X connect 211 0 207 3;
#X connect 212 0 296 0;
#X connect 213 0 304 0;
#X connect 214 0 312 0;
#X connect 221 0 269 0;
#X connect 223 0 221 1;
#X connect 224 0 196 0;
#X connect 225 0 224 1;
#X connect 226 0 43 0;
#X connect 227 0 226 1;
#X connect 228 0 62 0;
#X connect 229 0 228 1;
#X connect 230 0 81 0;
#X connect 231 0 230 1;
#X connect 232 0 158 0;
#X connect 233 0 232 1;
#X connect 234 0 169 0;
#X connect 235 0 234 1;
#X connect 236 0 185 0;
#X connect 237 0 236 1;
#X connect 238 0 239 1;
#X connect 239 0 115 0;
#X connect 240 0 239 2;
#X connect 241 0 239 3;
#X connect 242 0 239 4;
#X connect 243 0 239 5;
#X connect 244 0 239 6;
#X connect 245 0 246 1;
#X connect 246 0 106 0;
#X connect 247 0 246 2;
#X connect 248 0 246 3;
#X connect 249 0 246 4;
#X connect 250 0 246 5;
#X connect 251 0 246 6;
#X connect 252 0 253 1;
#X connect 253 0 117 0;
#X connect 254 0 253 2;
#X connect 255 0 253 3;
#X connect 256 0 253 4;
#X connect 257 0 253 5;
#X connect 258 0 253 6;
#X connect 259 0 260 1;
#X connect 260 0 102 0;
#X connect 261 0 260 2;
#X connect 262 0 260 3;
#X connect 263 0 260 4;
#X connect 264 0 260 5;
#X connect 265 0 260 6;
#X connect 269 0 23 0;
#X connect 269 1 25 0;
#X connect 270 0 274 6;
#X connect 271 0 274 5;
#X connect 272 0 274 2;
#X connect 273 0 274 1;
#X connect 274 0 260 0;
#X connect 275 0 274 3;
#X connect 276 0 274 4;
#X connect 277 0 283 6;
#X connect 278 0 283 5;
#X connect 279 0 283 2;
#X connect 280 0 283 1;
#X connect 281 0 283 3;
#X connect 282 0 283 4;
#X connect 283 0 246 0;
#X connect 284 0 320 6;
#X connect 285 0 320 5;
#X connect 286 0 320 2;
#X connect 287 0 320 1;
#X connect 288 0 320 3;
#X connect 289 0 320 4;
#X connect 290 0 321 6;
#X connect 291 0 321 5;
#X connect 292 0 321 2;
#X connect 293 0 321 1;
#X connect 294 0 321 3;
#X connect 295 0 321 4;
#X connect 296 0 302 0;
#X connect 297 0 303 0;
#X connect 298 0 297 1;
#X connect 298 0 303 1;
#X connect 299 0 296 1;
#X connect 299 0 302 1;
#X connect 300 0 301 0;
#X connect 301 0 298 0;
#X connect 302 0 297 0;
#X connect 303 0 283 0;
#X connect 304 0 310 0;
#X connect 305 0 311 0;
#X connect 306 0 305 1;
#X connect 306 0 311 1;
#X connect 307 0 304 1;
#X connect 307 0 310 1;
#X connect 308 0 309 0;
#X connect 309 0 306 0;
#X connect 310 0 305 0;
#X connect 311 0 320 0;
#X connect 312 0 318 0;
#X connect 313 0 319 0;
#X connect 314 0 313 1;
#X connect 314 0 319 1;
#X connect 315 0 312 1;
#X connect 315 0 318 1;
#X connect 316 0 317 0;
#X connect 317 0 314 0;
#X connect 318 0 313 0;
#X connect 319 0 321 0;
#X connect 320 0 239 0;
#X connect 321 0 253 0;
#X connect 323 0 322 4;
#X connect 324 0 322 1;
#X connect 325 0 322 2;
#X connect 326 0 322 3;
#X connect 328 0 327 4;
#X connect 329 0 327 1;
#X connect 330 0 327 2;
#X connect 331 0 327 3;
#X connect 333 0 332 4;
#X connect 334 0 332 1;
#X connect 335 0 332 2;
#X connect 336 0 332 3;
